<?xml version="1.0" encoding="utf-8"?>
<!-- Generator: Adobe Illustrator 27.2.0, SVG Export Plug-In . SVG Version: 6.00 Build 0)  -->
<svg version="1.1" id="_x32_" xmlns="http://www.w3.org/2000/svg" xmlns:xlink="http://www.w3.org/1999/xlink" x="0px" y="0px"
	 viewBox="0 0 512 512" style="enable-background:new 0 0 512 512;" xml:space="preserve">
<style type="text/css">
	.st0{fill:#4B4B4B;}
</style>
<g>
	<path class="st0" d="M418.94,114.36c-1.01-2.77-2.79-5.09-5.05-6.41c-4.7-2.75-10.07-5.08-16.05-7.15
		c-8.99-3.06-19.39-5.45-30.85-7.13c-11.46-1.65-23.97-2.57-37.09-2.57c-17.5,0-33.91,1.61-48.2,4.48
		c-7.16,1.44-13.76,3.19-19.76,5.22c-4.23,1.46-8.14,3.06-11.74,4.85c-3.6-1.79-7.51-3.39-11.75-4.85
		c-8.98-3.06-19.38-5.45-30.84-7.13c-11.47-1.65-23.98-2.57-37.1-2.57c-17.5,0-33.91,1.61-48.2,4.48
		c-7.13,1.43-13.75,3.18-19.74,5.22c-5.99,2.07-11.36,4.39-16.07,7.15c-2.26,1.32-4.03,3.64-5.04,6.41
		c-7.83,2.48-16.76,7.13-16.76,15.38c0,5.15,0,239.15,0,239.15c0,23,14.72,41.65,32.87,41.65h132.46v2.17
		c0,4.52,2.88,8.18,6.43,8.18h27.49c3.55,0,6.43-3.66,6.43-8.18v-2.17h132.46c18.15,0,32.87-18.65,32.87-41.65c0,0,0-234,0-239.15
		C435.7,121.5,426.78,116.85,418.94,114.36z M239.89,363.24c-0.49-0.17-0.95-0.36-1.45-0.55c-8.98-3.07-19.38-5.45-30.84-7.13
		c-11.47-1.65-23.98-2.57-37.1-2.57c-17.5,0-33.91,1.62-48.2,4.48c-7.13,1.44-13.76,3.19-19.75,5.22c-0.5,0.19-0.96,0.37-1.45,0.55
		V128.67c2.08-0.92,4.36-1.79,6.82-2.64c7.72-2.64,17.21-4.86,27.82-6.4c10.63-1.55,22.38-2.4,34.76-2.4
		c16.5,0,31.92,1.54,44.97,4.15c6.53,1.31,12.47,2.9,17.61,4.65c2.47,0.85,4.74,1.72,6.82,2.64V363.24z M399.27,363.24
		c-0.49-0.17-0.94-0.36-1.44-0.55c-8.99-3.07-19.39-5.45-30.85-7.13c-11.46-1.65-23.97-2.57-37.09-2.57
		c-17.5,0-33.91,1.62-48.2,4.48c-7.16,1.44-13.76,3.19-19.76,5.22c-0.49,0.19-0.95,0.37-1.44,0.55V128.67
		c2.07-0.92,4.35-1.79,6.82-2.64c7.71-2.64,17.19-4.86,27.81-6.4c10.63-1.55,22.39-2.4,34.77-2.4c16.48,0,31.91,1.54,44.97,4.15
		c6.53,1.31,12.45,2.9,17.61,4.65c2.46,0.85,4.73,1.72,6.8,2.64V363.24z"/>
</g>
</svg>
