<?xml version="1.0" encoding="utf-8"?>
<!-- Generator: Adobe Illustrator 27.2.0, SVG Export Plug-In . SVG Version: 6.00 Build 0)  -->
<svg version="1.1" id="_x32_" xmlns="http://www.w3.org/2000/svg" xmlns:xlink="http://www.w3.org/1999/xlink" x="0px" y="0px"
	 viewBox="0 0 512 512" style="enable-background:new 0 0 512 512;" xml:space="preserve">
<style type="text/css">
	.st0{fill:#4B4B4B;}
</style>
<g>
	<path class="st0" d="M187.61,201.14c-0.01-7.48-0.01-13.99,1.09-20.15l-6.45,6.18c-11.31,10.87-39.88,17.9-63.83,15.7
		c-23.96-2.2-34.2-12.79-22.89-23.67l85.13-74.32c1.65-1.45,2.12-3.58,1.18-5.43c-0.94-1.84-3.11-3.03-5.51-3.03H162.6
		c-4.01,0-7.85,1.34-10.67,3.72l-73.85,62.44c-15.15,13.23-14.45,20.58-14.45,41.16c0,14.7,0,202.87,0,202.87
		c0,17.65,26.59,32.23,50.54,34.42c23.95,2.2,56.76-4.83,68.07-15.7l7.53-7.3c-1.35-3.64-2.16-7.44-2.16-11.42L187.61,201.14
		L187.61,201.14z"/>
	<path class="st0" d="M454.01,96.42h-14.84c-4.33,0-8.44,1.57-11.29,4.28l-90.33,86.47c-11.31,10.87-39.88,17.9-63.82,15.7
		c-23.96-2.2-34.2-12.79-22.89-23.67l85.13-74.32c1.65-1.45,2.12-3.58,1.18-5.43c-0.95-1.84-3.11-3.03-5.51-3.03H317.9
		c-4.01,0-7.86,1.34-10.67,3.72l-73.85,62.44c-15.15,13.23-14.45,20.58-14.45,41.16c0,14.7,0,202.87,0,202.87
		c0,17.65,26.59,32.23,50.54,34.42c23.95,2.2,56.76-4.83,68.07-15.7L449.12,317.2c7.02-6.81,10.88-15.49,10.88-24.47V101.42
		C460,98.66,457.32,96.42,454.01,96.42z"/>
</g>
</svg>
