<?xml version="1.0" encoding="utf-8"?>
<!-- Generator: Adobe Illustrator 27.2.0, SVG Export Plug-In . SVG Version: 6.00 Build 0)  -->
<svg version="1.1" id="books" xmlns="http://www.w3.org/2000/svg" xmlns:xlink="http://www.w3.org/1999/xlink" x="0px" y="0px"
	 viewBox="0 0 180 180" style="enable-background:new 0 0 180 180;" xml:space="preserve">
<style type="text/css">
	.st0{fill:#4B4B4B;}
</style>
<g>
	<g>
		<path class="st0" d="M158.62,112.61c-13.1,0.71-14.72,7.35-13.38,15.49c1.24,7.53-4.24,8.12-11.08,8.09
			c-28.55-0.13-57.11-0.06-85.66-0.02c-3.88,0-7.84-0.1-11.63,0.47c-4.56,0.69-8,2.96-8.32,7.24c-0.35,4.76,2.94,7.6,8.06,8.57
			c3.74,0.72,7.71,0.75,11.57,0.76c27.69,0.06,55.38,0,83.07,0.07c4.4,0.01,9.15-0.83,13.99,2.07c-4.15,3.71-8.59,2.93-12.59,2.94
			c-29.42,0.07-58.84,0.14-88.26,0c-18.31-0.1-22.92-4.14-22.97-19.55c-0.06-18.58-0.01-37.15-0.02-55.73
			c0-3.65-0.28-7.37,2.36-10.54c2.52-3.03,5.14-7.13,8.56-0.5c0.88,1.7,1.96,3.43,4.65,2.9c3.43-0.67,2.92-3.25,3.02-5.29
			c0.47-10.18,0.84-20.36,1.19-30.54c0.46-13.15,4.82-17.16,20.11-17.24c28.55-0.17,57.12,0.1,85.66-0.15
			c7.96-0.07,11.74,1.54,11.47,9.13c-0.6,17.47-0.58,34.97,0,52.44c0.24,7.39-3.05,9.37-11.26,9.27c-25.09-0.31-50.19-0.1-75.28-0.1
			c-3.46,0-6.93-0.02-10.38,0.05c-7.09,0.14-13.67,1.67-13.38,8.85c0.27,6.38,6.52,8.08,13.06,8.12c18.6,0.12,37.21,0.07,55.81,0.08
			c13.3,0.01,26.61,0,39.91,0C157.47,110.52,158.05,111.57,158.62,112.61z"/>
	</g>
</g>
</svg>
