<?xml version="1.0" encoding="utf-8"?>
<!-- Generator: Adobe Illustrator 27.7.0, SVG Export Plug-In . SVG Version: 6.00 Build 0)  -->
<svg version="1.1" id="_x32_" xmlns="http://www.w3.org/2000/svg" xmlns:xlink="http://www.w3.org/1999/xlink" x="0px" y="0px"
	 viewBox="0 0 512 512" style="enable-background:new 0 0 512 512;" xml:space="preserve">
<style type="text/css">
	.st0{fill:#4B4B4B;}
	.st1{fill:#606060;}
	.st2{font-family:'MicrosoftJhengHeiBold';}
	.st3{font-size:51.5208px;}
</style>
<g>
	<path class="st0" d="M491.9,189.6c-3.5-1.3-7.4,0.5-8.7,4c-1.9,5.1-4.1,9.2-6.3,12.5c-1.9,2.9-4,5.2-6,6.9c0-0.2,0-0.4,0-0.6
		c0-5.1-0.7-9.5-2-13.5c-1.9-5.9-5.3-10.6-9.6-13.7c-4.2-3.1-9.2-4.5-13.9-4.5c-5.2,0-10.2,1.6-14.4,4.7c-2.1,1.6-3.9,3.5-5.4,5.7
		c-1.4,2.2-2.5,4.8-3,7.6c-0.2,1.3-0.3,2.6-0.3,3.9c0,4.1,1.1,8.1,3,11.6c2.8,5.3,7.2,9.8,12.5,13c3.1,1.9,6.6,3.4,10.3,4.2
		c-0.2,0.2-0.4,0.4-0.6,0.6c-5.6,4.6-13.3,8.5-21.5,11.2c-19-26.2-46.9-45.8-79.3-57v39.5H207.4v-37.5c-11.1,4-22.1,8.9-32.9,14.9
		c-10.5,5.9-19.9,11.9-28.5,18c-23.2-27.9-81.6-32.6-74-10.9c6.8,19.7,16.8,41.2,21.5,54c-17.5,14.8-33.8,26.2-55.1,30.2
		c-19.5,3.6-25.2,8.8-21.6,27.8l8,63.7c0,0,22.7,13.1,30.8,17.6c17.8,9.8,52.7,31.2,104.3,47.1l19.6,61.4h49v-46.2
		c19.5,2.7,40.6,4.3,63.1,4.3c11.7,0,22.7-0.8,33.1-2.3V512h49l22.8-71.3c54.1-38.2,67.5-106.7,48.4-161.7
		c-2.9-8.5-6.7-16.5-11.1-24.1c7.3-2.7,14.3-6.2,20.3-10.7c4.5-3.3,8.5-7.3,11.5-11.9c0.3-0.5,0.6-0.9,0.9-1.4
		c0.5-0.2,1-0.3,1.4-0.5c5.6-2,11.1-5.6,15.9-11c4.8-5.3,9-12.3,12.3-21.2C497.2,194.8,495.4,190.9,491.9,189.6z M98.6,328.2
		c-7.2,0-13.1-5.8-13.1-13.1c0-7.2,5.9-13.1,13.1-13.1c7.2,0,13.1,5.9,13.1,13.1C111.6,322.4,105.8,328.2,98.6,328.2z M457.3,215.8
		c-0.1,1.1-0.3,2.1-0.5,3.2c-0.1,0-0.3,0-0.4,0c-2.7,0-5.4-0.5-7.9-1.5c-3.8-1.5-7-3.9-9.3-6.7c-1.1-1.4-2-2.8-2.5-4.2
		c-0.5-1.4-0.8-2.7-0.8-3.9c0-0.5,0.1-1,0.1-1.5c0.2-1,0.5-1.9,1.1-2.7c0.8-1.2,1.9-2.2,3.4-3c1.5-0.8,3.2-1.2,4.9-1.2
		c1.4,0,2.8,0.3,4.1,0.8c1,0.4,1.9,1,2.7,1.8c1.3,1.2,2.5,2.9,3.5,5.4c0.9,2.5,1.6,5.8,1.6,10.1
		C457.4,213.5,457.3,214.6,457.3,215.8z"/>
	<path class="st0" d="M276.7,0c-52.5,0-95,42.6-95,95c0,52.5,42.5,95,95,95c52.5,0,95-42.5,95-95C371.7,42.6,329.2,0,276.7,0z
		 M276.7,175.2c-44.2,0-80.2-36-80.2-80.2c0-44.2,36-80.2,80.2-80.2s80.2,36,80.2,80.2C356.9,139.2,320.9,175.2,276.7,175.2z"/>
	<path class="st0" d="M278.9,31.2L278.9,31.2c1.7,0,3-1.3,3.1-2.9c0.1-1.6-1.2-3-2.9-3.1h-0.3l0,0h0l0,0h0h0h0h0l0,0h-0.1l0,0h0l0,0
		c-0.5,0-0.9,0-1.3,0h-0.1h0h0l0,0h-0.1h0l0,0l0,0h0h0l0,0h0h0h0l0,0h0h0h0h0h0h0h0l0,0h0l0,0h0l0,0h0h0h0h0h0h0l0,0h0l0,0h0h0h0h0
		h0l0,0h0l0,0h0h0l0,0h0h0l0,0l0,0l0,0h0l0,0h0h0h0l0,0h0l0,0h0h0h0l0,0h0h0h0l0,0h0h0h0h0h0h0h0l0,0h0l0,0h0h0h0h0h0h0l0,0l0,0h0h0
		h0h0h0h0h0h0h0l0,0h0h0h0l0,0h0l0,0h0l0,0h0h0h0l0,0h0h0h0h0l0,0h0h0h0h0l0,0h0h0l0,0h0h0h0h0h0h0l0,0h0l0,0h0h0h0h0h0l0,0h0h0h0h0
		h0h0h0l0,0h0h0h0l0,0h0h0h0l0,0h0h0h0l0,0h0h0h0h0h0h0h0l0,0h0h0l0,0h0h0h0h0l0,0h0h0l0,0h0h0l0,0h0l0,0h0l0,0h0h0h0l0,0h0h0h0l0,0
		h0h0h0h0h0l0,0h0h0h0h0h0l0,0h0l0,0h0h0h0h0h0h0h0l0,0h0l0,0h0h0h0l0,0h0l0,0h0l0,0l0,0h0h0l0,0h0l0,0h-0.1h0h0l0,0h0H273h0h0h0h0
		l0,0h0h0h0h0h0l0,0l-0.1,0h0h0h0h0l-0.1,0l0,0h0h0h0l0,0h-0.1l0,0h0h0h0l0,0l-0.1,0l0,0h0h0h-0.1l0,0h0l0,0h0l0,0H272h0l0,0h-0.1
		l0,0c-1.4,0.1-2.7,0.2-4,0.4c-1.6,0.2-2.8,1.7-2.6,3.3c0.2,1.5,1.5,2.6,3,2.6h0.4c2.7-0.4,5.4-0.5,8.1-0.5
		C277.5,31.1,278.2,31.1,278.9,31.2z"/>
	<path class="st0" d="M250.5,33.4c-0.5-1.1-1.6-1.7-2.7-1.7c-0.5,0-0.9,0.1-1.3,0.3c-1,0.5-2,1-3,1.5l-0.2,0.1l0,0l-0.1,0l0,0h0l0,0
		l-0.1,0.1l0,0h0h0h0v0l0,0l0,0l0,0h0l0,0l0,0h0l0,0h0l0,0l0,0l0,0h0v0h0l0,0l0,0h0l0,0l0,0l0,0l0,0h0h0l0,0l0,0h0h0l0,0l0,0h0l0,0
		h0v0l0,0l0,0l0,0l-0.1,0l0,0h0h0l-0.1,0l0,0l0,0l-0.1,0c-1.2,0.7-2.4,1.4-3.5,2.1c-1.4,0.9-1.8,2.7-0.9,4.1
		c0.6,0.9,1.5,1.4,2.5,1.4c0.6,0,1.1-0.2,1.6-0.5c2.3-1.5,4.7-2.8,7.1-4C250.6,36.7,251.2,34.9,250.5,33.4z"/>
	<path class="st0" d="M255.6,155.4c-2.5-0.9-5.1-2-7.5-3.2c-0.4-0.2-0.9-0.3-1.3-0.3c-1.1,0-2.1,0.6-2.7,1.7c-0.7,1.4-0.1,3.2,1.3,4
		c0.9,0.4,1.8,0.9,2.8,1.3l0.1,0h0l0.1,0l0,0l0,0l0,0v0h0l0,0h0l0,0l0,0l0,0h0h0l0,0l0,0h0h0l0,0l0,0l0,0l0,0h0l0,0h0l0,0l0,0l0,0
		l0,0h0l0,0h0h0v0h0l0,0h0v0h0h0l0,0l0,0l0,0h0h0h0l0,0h0h0l0,0l0,0h0l0,0h0l0.1,0h0h0l0,0l0.1,0h0h0l0,0l0,0l0,0l0.1,0l0,0h0h0v0h0
		l0.1,0l0,0l0,0l0,0l0.1,0l0,0l0,0l0,0l0.1,0l0,0l0,0l0,0l0.1,0l0,0l0,0l0.1,0l0,0l0.1,0l0,0l0,0l0,0l0.1,0l0,0l0,0h0l0.1,0h0l0,0
		l0,0h0l0,0l0.1,0h0h0l0.1,0l0,0h0l0.1,0l0,0l0,0l0,0l0.1,0l0,0l0,0l0.1,0l0,0l0,0h0h0l0,0l0.1,0l0,0l0,0l0,0l0.1,0l0,0l0,0h0l0,0h0
		l0,0l0,0h0l0,0h0l0,0h0l0,0h0h0l0,0h0h0l0,0h0h0l0,0l0,0h0l0,0h0l0,0l0,0l0,0h0l0,0h0h0h0h0h0l0,0l0,0h0v0h0l0,0l0,0l0,0l0,0h0h0
		l0,0l0,0h0h0l0,0l0,0l0,0h0l0,0l0,0h0h0h0l0,0l0.1,0l0,0l0,0l0,0c0.5,0.2,1,0.3,1.5,0.5c0.3,0.1,0.7,0.2,1,0.2c1.2,0,2.4-0.8,2.8-2
		C258,157.6,257.2,155.9,255.6,155.4z"/>
	<path class="st0" d="M226.3,134.3c-0.6-0.8-1.5-1.1-2.3-1.1c-0.6,0-1.3,0.2-1.8,0.6c-1.3,1-1.5,2.9-0.5,4.2c0.5,0.7,1.1,1.4,1.7,2
		l0,0l0,0.1l0,0v0l0,0.1h0v0h0h0v0l0,0h0l0,0l0,0v0l0,0l0,0l0,0l0,0l0,0l0,0l0,0l0,0l0,0h0v0h0v0l0,0l0,0v0l0,0l0,0l0,0.1h0l0,0h0
		l0,0l0,0.1c1.2,1.4,2.4,2.7,3.7,3.9c0.6,0.6,1.3,0.9,2.1,0.9c0.8,0,1.5-0.3,2.1-0.9c1.2-1.2,1.2-3.1,0-4.2
		C229.7,138.5,227.9,136.4,226.3,134.3z"/>
	<path class="st0" d="M210.2,91c1.5,0,2.8-1.1,3-2.6c0.3-2.7,0.7-5.4,1.4-8c0.4-1.6-0.6-3.2-2.2-3.6l-0.7-0.1
		c-1.4,0-2.6,0.9-2.9,2.3c-0.7,2.9-1.2,5.8-1.5,8.8c-0.2,1.6,1,3.1,2.6,3.2C209.9,91,210.2,91,210.2,91z"/>
	<path class="st0" d="M222.2,61.6c1.4-2.3,3-4.5,4.7-6.7c1-1.3,0.8-3.1-0.4-4.2c-0.5-0.4-1.2-0.7-1.9-0.7c-0.9,0-1.7,0.4-2.3,1.1
		c-0.5,0.6-1,1.2-1.4,1.8l0,0l0,0v0l-0.1,0.1h0l0,0.1v0l-0.1,0.1l0,0l-0.1,0.1v0l-0.1,0.2c-0.8,1.1-1.5,2.2-2.3,3.3l0,0l0,0.1v0l0,0
		l0,0l0,0l0,0l0,0l0,0v0l0,0l0,0l0,0h0l0,0l0,0l0,0.1l0,0l0,0l0,0l0,0l0,0v0v0l0,0l0,0l0,0h0l0,0v0v0l0,0h0l0,0v0l0,0l0,0h0v0l0,0
		l0,0l0,0.1l0,0c-0.2,0.3-0.4,0.6-0.5,0.9c-0.9,1.4-0.4,3.2,1,4.1c0.5,0.3,1,0.4,1.6,0.4C220.7,63,221.7,62.5,222.2,61.6z"/>
	<path class="st0" d="M214.3,108.7c-0.3-1.4-1.5-2.3-2.9-2.3l-0.6,0c-1.6,0.3-2.6,1.9-2.3,3.5c0.6,2.9,1.5,5.8,2.4,8.6
		c0.4,1.2,1.6,2,2.8,2c0.3,0,0.7-0.1,1-0.2c1.5-0.5,2.3-2.2,1.8-3.8C215.6,113.9,214.8,111.3,214.3,108.7z"/>
	<path class="st0" d="M312.1,148.9c-0.5,0-1.1,0.2-1.6,0.4c-2.3,1.4-4.7,2.8-7.2,3.9c-1.5,0.7-2.2,2.5-1.5,3.9
		c0.5,1.1,1.6,1.7,2.7,1.7c0.4,0,0.8-0.1,1.2-0.3c1.7-0.8,3.2-1.6,4.8-2.4h0l0,0l0.1,0l0,0l0,0l0,0l0,0h0l0,0l0,0l0,0l0,0h0l0,0l0,0
		h0l0,0l0,0l0,0h0h0v0h0h0l0,0h0l0,0l0,0h0l0,0h0l0,0l0,0h0v0l0,0l0,0l0,0l0,0l0,0h0l0,0l0.1,0h0l0,0c0.8-0.4,1.5-0.9,2.2-1.3
		c1.4-0.9,1.8-2.7,0.9-4.1C314,149.4,313,148.9,312.1,148.9z"/>
	<path class="st0" d="M334.7,128.5c-0.5-0.3-1-0.5-1.6-0.5c-1,0-1.9,0.5-2.5,1.4c-1.5,2.3-3.1,4.5-4.8,6.6c-1,1.3-0.9,3.1,0.4,4.2
		c0.5,0.5,1.2,0.7,1.9,0.7c0.8,0,1.7-0.4,2.3-1c1.5-1.9,3-3.8,4.3-5.8h0v0h0l0,0h0v0l0,0l0,0l0,0l0,0l0,0l0,0v0l0,0l0,0l0,0v0l0,0
		l0,0l0,0v0l0,0h0l0,0l0,0l0,0l0,0l0,0l0,0h0v0l0,0l0-0.1l0,0v0l0,0l0,0l0,0l0,0l0,0l0-0.1l0,0l0.5-0.7
		C336.5,131.2,336.1,129.4,334.7,128.5z"/>
	<path class="st0" d="M342.3,84.9l0.6,0c1.6-0.3,2.6-1.9,2.3-3.5l-0.1-0.4h0v0v0l0,0v0v0v0l0,0v0l0,0l0,0v0v0v0h0v0v0v0l0,0l0,0v0
		l0,0v0v0l0,0v0v0l0,0v0l0,0l0,0v0v0l0,0v0v0h0v0l0,0v0l0,0l0,0v0v0v0v0l0,0l0,0v0v0l0,0l0,0v-0.1l0,0l0,0v0l0-0.1l0,0v0l0-0.1l0,0
		v0l0,0l0-0.1l0,0l0-0.1l0,0c-0.3-1.5-0.8-3-1.2-4.5l0-0.1l-0.1-0.2l0,0l0-0.1l0,0l0-0.1v0l0,0l0,0l0-0.1l0-0.1l0,0v0l0,0l0-0.1l0,0
		l0,0v0l0,0l0,0v0l0,0l0,0h0v0v0h0l0,0l0,0v0v0v0v0h0v0v0l0,0l0,0v0v0v0l0,0l0,0l0,0l0,0v0v0v0l0,0v0h0v0v0l0,0l0,0v0v0v0h0v0l0,0v0
		l0,0l0,0l0,0v0v0h0v0v0l0,0l0,0v0l0,0h0v0v0l0,0l0-0.1l0,0v0v0h0v0l0,0l0,0l0,0l0,0l0,0c-0.4-1.2-1.6-2-2.8-2c-0.3,0-0.6,0-1,0.2
		c-1.5,0.5-2.4,2.2-1.9,3.8c0.9,2.5,1.6,5.2,2.1,7.8C339.7,83.9,340.9,84.9,342.3,84.9z"/>
	<path class="st0" d="M284.1,158.6h-0.3c-2.3,0.3-4.7,0.4-7,0.4c-0.4,0-0.8,0-1.1,0h0c-1.6,0-2.9,1.3-3,2.9c0,1.6,1.3,3,2.9,3
		c0.3,0,0.6,0,0.9,0l0,0h0l0,0h0l0,0h0h0h0l0,0h0h0h0h0h0h0h0l0,0h0l0,0h0h0h0h0h0h0h0h0h0l0,0h0l0,0h0h0h0h0h0h0l0,0h0h0h0h0h0h0
		l0,0h0l0,0h0h0h0h0h0l0,0h0h0h0h0l0,0h0h0h0l0,0h0h0.1l0,0h0h0h0l0,0h0h0h0h0l0,0h0h0h0l0,0h0h0h0h0l0,0h0l0,0h0.1l0,0h0l0,0h0l0,0
		h0h0h0h0h0l0,0h0h0h0l0,0h0h0h0h0h0l0,0h0.1h0h0h0l0,0h0l0,0h0h0h0l0,0h0l0,0h0l0,0h0l0,0l0.2,0h0h0c1.8-0.1,3.7-0.2,5.5-0.4
		c1.6-0.2,2.8-1.7,2.6-3.3C286.9,159.7,285.6,158.6,284.1,158.6z"/>
	<path class="st0" d="M343.5,100.2l-0.3,0c-1.5,0-2.8,1.1-3,2.6c-0.3,2.7-0.8,5.4-1.5,8c-0.4,1.6,0.6,3.2,2.2,3.6l0.7,0.1
		c1.3,0,2.5-0.9,2.9-2.2c0.2-0.6,0.3-1.2,0.4-1.8l0,0v0l0,0l0-0.1v0v0h0v0v0v0l0,0l0,0v0l0,0v0v0h0l0,0v0v0v0v0l0,0l0,0v0v0v0v0l0,0
		l0,0l0-0.1l0,0v0l0,0v0l0-0.1l0,0v0l0,0l0-0.1c0.4-2,0.8-4,1-6.1C346.3,101.9,345.1,100.4,343.5,100.2z"/>
	<path class="st0" d="M307.7,38.7c1.1,0,2.1-0.6,2.6-1.6c0.8-1.4,0.2-3.2-1.2-4c-1.8-0.9-3.6-1.8-5.5-2.6l0,0l-0.1,0l0,0l0,0l0,0
		l-0.1,0h0l0,0l0,0h0l0,0l-0.1,0l0,0l-0.1,0l0,0h0l-0.1,0h0l0,0l0,0l-0.1,0l0,0l0,0l-0.1,0l0,0h0v0l-0.1,0l-0.1,0l0,0
		c-0.5-0.2-1-0.4-1.6-0.6c-0.3-0.1-0.7-0.2-1-0.2c-1.2,0-2.3,0.8-2.8,2c-0.6,1.5,0.2,3.3,1.8,3.8c2.5,1,5,2,7.4,3.3
		C306.7,38.6,307.2,38.7,307.7,38.7z"/>
	<path class="st0" d="M330.2,57.9c0.6,0,1.2-0.2,1.8-0.6c1.3-1,1.6-2.8,0.6-4.2c-1-1.3-2-2.6-3.1-3.9l0,0l0,0l0,0l0,0v0l-0.1,0l0,0
		l0,0l0,0l0,0l0,0l0,0l0,0l0,0l0,0l0,0h0l0,0l0,0l0,0v0l0,0v0l0,0h0l0,0v0l0,0h0l0,0l0,0v0h0l0,0l0,0l0,0l0,0l0,0l0,0l0,0l0,0l0,0h0
		v0h0v0l-0.1,0l0,0l0,0l0,0l0-0.1l0,0l0,0l0,0l0,0v0l0,0l0,0l0,0l0,0l0,0v0l0,0l0,0l0,0h0l-0.1-0.1l0,0l-0.1-0.1v0l-0.1-0.1v0
		c-0.5-0.5-1-1-1.5-1.5c-0.6-0.6-1.4-0.9-2.1-0.9c-0.7,0-1.5,0.3-2.1,0.8c-1.2,1.1-1.2,3,0,4.2c1.9,2,3.7,4,5.3,6.2
		C328.4,57.5,329.3,57.9,330.2,57.9z"/>
	<text transform="matrix(0.959 0 0 1 227.6081 113.3825)" class="st1 st2 st3">知音</text>
</g>
</svg>
