<?xml version="1.0" encoding="utf-8"?>
<!-- Generator: Adobe Illustrator 27.7.0, SVG Export Plug-In . SVG Version: 6.00 Build 0)  -->
<svg version="1.1" id="圖層_1" xmlns="http://www.w3.org/2000/svg" xmlns:xlink="http://www.w3.org/1999/xlink" x="0px" y="0px"
	 viewBox="0 0 1280 1024" style="enable-background:new 0 0 1280 1024;" xml:space="preserve">
<style type="text/css">
	.st0{fill:#3E803E;}
	.st1{fill:#E9F1E9;}
	.st2{fill:#B8CEB7;}
	.st3{fill:#40843D;}
	.st4{fill:#40833D;}
	.st5{fill:#3C823E;}
	.st6{fill:#41843D;}
	.st7{fill:#3D823C;}
	.st8{fill:#40833E;}
	.st9{fill:#41843E;}
	.st10{fill:#40833C;}
	.st11{fill:#3F833C;}
	.st12{fill:#40853C;}
	.st13{fill:#3E833C;}
	.st14{fill:#41853E;}
	.st15{fill:#3E7F3C;}
	.st16{fill:#41843C;}
	.st17{fill:#3C7E3B;}
	.st18{fill:#3F7F3A;}
	.st19{fill:#42843E;}
	.st20{fill:#3C813F;}
	.st21{fill:#3C853E;}
	.st22{fill:#418139;}
	.st23{fill:#43823D;}
	.st24{fill:#4B8447;}
	.st25{fill:#56884E;}
	.st26{fill:#71996D;}
</style>
<g>
	<g>
		<path class="st0" d="M700.4,977.4c36.2-0.6,72.5-1.3,108.7,0c-3.6,4.7-9.2,6.5-14,6.4c-14.4-0.1-26.8,9.6-41.5,8.4
			c-3.7-0.3-10.7-1.4-12.8,4.9c-2.3,6.7,6.7,5.4,7.4,10.5c0.1,0.4,0.1,0.7,0.2,1.1c-20.6,0.1-41.1,0.1-61.7,0.5
			c-3.1,0.1-7-2.1-9.5,2.1c-4.2,0-8.4,0-12.6,0c-0.1-0.6-0.1-1.3-0.2-1.9c1.8-3,4.8-3.1,7.4-2.5c11.5,2.6,20.4-4.3,29.8-9
			c8.5-4.2,8.4-8.6,0.4-14C699.8,982.3,696.9,980.9,700.4,977.4z"/>
		<path class="st1" d="M664.6,1009.4c0,0.6,0.1,1.3,0.2,1.9c-180.7,0-361.3,0-542,0c0-0.7,0-1.3,0-2c109.3-0.1,218.6-0.1,327.9-0.2
			c56-0.1,112.1-0.2,168.1-0.4C634,1008.9,649.3,1009.1,664.6,1009.4z"/>
		<path class="st1" d="M677.3,1011.3c2.5-4.2,6.3-2,9.5-2.1c20.6-0.4,41.1-0.4,61.7-0.5c8.4,0,16.7,0,25.1,0c36.3,0,72.5,0,108.8,0
			c10.5,0,20.9,0,31.4,0c17.4,0,34.9,0,52.3,0c7,0,14,0,20.9,0c1.4,0,2.8,0,4.2,0c27.2,0.2,54.3,0.5,81.5,0.7
			c0.1,0.6,0.1,1.3,0.1,1.9C941,1011.3,809.1,1011.3,677.3,1011.3z"/>
		<path class="st2" d="M1072.8,1011.3c0-0.6,0-1.3-0.1-1.9c18.9,0,37.8,0,56.7,0c-0.1,0.6-0.2,1.3-0.1,1.9
			C1110.5,1011.3,1091.6,1011.3,1072.8,1011.3z"/>
		<path class="st1" d="M1129.3,1011.3c0-0.7,0-1.3,0.1-1.9c2.8-0.2,5.5-0.4,8.3-0.7c11.2,0.2,22.3,0.4,33.5,0.6c0,0.7,0,1.3,0,2
			C1157.2,1011.3,1143.2,1011.3,1129.3,1011.3z"/>
		<path class="st3" d="M480.7,532.8c14.3,22,32.2,39.2,56,48.6c14.3,5.7,28.8,10.9,43.1,16.9c16.6,7,30.7,18.2,42.8,32.2
			c1.9,2.2,3.6,4.9,6.9,4c3.2-1,3.9-3.9,3.8-7.1c-0.6-52.7,4.2-105.9-12.2-157.3c-10.3-32.2-26.1-60.9-46.4-86.9
			c-21.5-27.6-45.9-51.8-72.3-73.7c-3.2-2.6-6.7-5.3-8.5-10.9c15,1,28,7.4,41,12.8c48.8,20.4,85,56.7,110.6,105.5
			c3.9,7.4,7.6,14.9,10.9,22.7c1.1,2.5,1.5,5.3,4.4,5.3c2.6,0,2.7-3.2,3.5-5c8-18.1,17.9-35,28.9-51.2
			c30.2-44.3,70.6-72.5,119.3-87.8c4.7-1.5,9.2-3,15.7-1.6c-11.7,10.8-22.8,20.8-33.6,31.1c-45.9,43.7-84.3,92.9-99,159.2
			c-3,13.6-5.8,27.2-5.8,41.4c-0.1,33.8-0.8,67.6,0.5,101.4c1.2,3.4,2.5,2.9,4,0.2c23.6-26.7,54.8-37.9,85.9-49.8
			c40.9-15.5,65.7-46,73.2-92.9c2.3-14,0.1-28,2.8-44.2c7.8,13,10.5,25.7,11.4,38.3c3.8,58.8-20.4,102-65.7,132.8
			c-7.5,5.1-15.3,9.7-23.5,13.2c-47.2,20.1-69.5,60.9-80,111.7c-3.7,17.9-5,36-4.1,54.2c0.8,17.9-2.2,34-10.1,50.2
			c-8.8,18-14.5,37.7-22.6,59.4c-7.3-21.2-12.7-40.3-21.9-57.3c-10-18.5-10.1-37.9-10.4-58.2c-0.6-45-10.5-87.2-37.4-123.1
			c-11.3-15-26.3-24.4-42.3-32.4c-23.5-11.7-46.2-24.8-62.8-47.2c9.7-10.9-6.6-21.6-0.3-32.6c0.6-1-0.2-4.2-1.3-4.9
			C478.8,545.5,480.9,538.8,480.7,532.8z"/>
		<path class="st4" d="M664.6,1009.4c-15.3-0.2-30.6-0.5-45.9-0.7c-2.7-5.1,0.2-14.4-5-16c-8.9-2.7-7.5-8.9-7.6-15.3
			c20.8-0.5,24.6-5.2,25.1-28.4c0.9-36.6-14.1-66.7-33.9-94.3c-28.8-40.2-66.5-67-112-80.5c-21.5-6.4-43.3-10.9-65.8-10.9
			c-27,0.1-54.1-0.7-80.9,4.4c-7,1.3-11-0.8-11.1-10c-0.2-19.9-0.7-21,17.8-23.2c36.2-4.2,72-12.6,108.7-11.9
			c60.8,1.2,109.6,27.8,145.4,80.6c27.2,40.1,44.7,85.3,57.1,133c1.1,4.1,0.5,10,7,12.1c9-37.5,22.3-73.1,39.1-107.2
			c20.6-41.7,46.4-78.3,87.3-99.1c34.3-17.5,70.2-22.4,108.2-17.7c25.5,3.1,50.9,7.6,76.6,9.4c4.8,0.3,9.1,3.4,14.2,2.6
			c3.1-0.5,4.3,1.7,4.3,4.8c0,6.8,0.1,13.5-0.1,20.3c-0.1,4.8-3,5.9-7,6.3c-8.7,0.9-17.1-1.9-25.7-2.7
			c-48.2-4.4-95.7-3.7-141.6,15.4c-23.3,9.7-44,23.4-63,40.8c-27.2,24.9-45,56.4-59.4,90.8c-5.2-1.4-12.2-4.7-13.6,3.6
			c-1,5.9-0.7,15.1,9.5,14.5c-0.7,8.3-0.5,16.6,1.4,24.7c-1.3,0.2-2.9,0.4-2.9,2.3c0,1.9,1.6,2,2.9,2.3c3.7,5.3,2.5,12.9,6.7,18
			c-3.5,3.5-0.6,4.9,1.8,6.5c8,5.3,8.1,9.7-0.4,14c-9.4,4.7-18.3,11.6-29.8,9C669.4,1006.2,666.4,1006.4,664.6,1009.4z"/>
		<path class="st0" d="M606.1,977.3c0.1,6.4-1.4,12.6,7.6,15.3c5.2,1.6,2.3,10.9,5,16c-56,0.1-112.1,0.3-168.1,0.4
			c-109.3,0.1-218.6,0.2-327.9,0.2c-9-3.2-14.1-9.6-12.4-20.1c1.8-10.5,9.3-12.5,18-12.5c65.5,0.1,131,0.1,196.6,0
			c89.6,0,179.1-0.1,268.7-0.1C597.8,976.7,602,977.1,606.1,977.3z"/>
		<path class="st5" d="M1137.7,1008.7c-2.8,0.2-5.5,0.4-8.3,0.7c-18.9,0-37.8,0-56.7,0c-27.2-0.2-54.3-0.5-81.5-0.7
			c-0.2-1.4-0.4-3.2-2.1-3.2c-1.7,0-1.9,1.7-2.1,3.2c-7,0-14,0-20.9,0c-0.5-3.3-2.5-4.1-5.3-4.1c-13.9,0-27.9,0-41.8,0
			c-2.7,0-4.8,0.9-5.3,4.1c-10.5,0-20.9,0-31.4,0c-0.3-1.9-1.1-3.5-3-4.1c-8.3-2.5-16.7-5.5-25.3-4.4c-25,3.2-50,5.7-75.3,4.4
			c-2.7-0.1-4.7,0.9-5.2,4.1c-8.4,0-16.7,0-25.1,0c-0.1-0.4-0.1-0.7-0.2-1.1c-0.7-5-9.7-3.7-7.4-10.5c2.1-6.3,9.1-5.2,12.8-4.9
			c14.7,1.2,27.1-8.5,41.5-8.4c4.8,0,10.3-1.7,14-6.4c7.7,0,15.3,0,23-0.1c6.4,5.8,11.7,12.8,22.1,11.5c17.2-2.1,33.1-11.7,50.9-9.6
			c0.7,0.1,1.6-1.2,2.4-1.9c5.6-0.9,11.1-0.9,16.7,0c6.5,10,20.2,10,25.1,0c16.8-0.8,33.5-1.4,50.3,0.5c2.8,2.7,5.5,2.7,8.2,0
			c44.7-1.5,89.4-1.7,134,0c2.1,3.1,4.2,6.5,6.2,0c4.2,0,8.4,0,12.6,0c0.4,5.4,5.6,4.6,8.3,7.1c7.9,7.4,8.1,10.6,0.3,18.3
			c-3.2,3.1-6.6,3.3-10.4,3.6C1151.8,1007.4,1144.5,1004.8,1137.7,1008.7z"/>
		<path class="st6" d="M706.2,96.9c0.5,33.8-16.1,55.7-42.4,71.3c-5.5,3.3-8.7,0.4-12-2.2c-39.4-29.7-48.8-69.3-23.3-115.5
			c7.6-13.7,17-26.1,26.8-38.2c4-4.9,7.4-6.3,11.9-0.8c16.7,20.8,32.1,42.6,38.9,69.7C707.3,86.2,706.2,91.7,706.2,96.9z"/>
		<path class="st7" d="M514.1,907c-27.9-5.7-56-7.9-84.3-6.1c-32.9,2.2-65.8,3.2-98.6,4.8c-30.1,1.4-60.1,3.9-90.2,4
			c-12.3,0-17,4.2-19.8,17.6c-1.8,8.6-4.1,17-8.9,24.4c-5.8,8.8-17.9,13.2-26.8,9.8c-2.8-1.1-5.5-3.3-2.7-6.5
			c9.8-11.1,13.5-25.3,17.8-39.3c5.3-17.3,17.3-24.2,33.8-24c20.9,0.3,41.9-0.6,62.8,0c26.1,0.8,52-2.1,78-2.7
			c31.8-0.8,63.6-4,95.4-3.9c14.7,0,29.2,3.3,43.5,7c1,1.6,2.6,1.9,4.2,1.9c0.7,0,1.3,0.2,2,0.4c0,8.3,8.8,4.3,12,9
			C526.2,907.6,519.4,902.8,514.1,907z"/>
		<path class="st4" d="M323.4,278.2c26.2-0.3,44.6,10.7,59.3,29.2c8.9,11.2,8,17.4-3.6,24.7c-34.7,21.7-60.9,21.2-94-4
			c-8-6.1-14.9-13.4-21.6-20.9c-3.3-3.7-3.1-6.3,1.1-8.6C284.1,288.1,303.4,276.8,323.4,278.2z"/>
		<path class="st8" d="M1059.9,302.4c-16.2,18.9-33.6,36.5-57.9,42c-23.8,5.4-46.4,1.2-65.8-15.8c-6.9-6-4.6-12.9,0.2-19.2
			c26.1-34.4,57.1-36.5,90.7-25C1038.6,288.5,1049.6,294.2,1059.9,302.4z"/>
		<path class="st9" d="M984.4,567.1c-17.1,1-32.3-5.3-46.6-14.2c-11.8-7.4-12.8-16.4-3.5-27.1c21-24.2,46.8-27.2,76.5-16.5
			c12.2,4.4,23.5,11.6,34.4,19.3c4.2,2.9,5.9,5,1.4,9C1028.5,553.6,1009.1,566.8,984.4,567.1z"/>
		<path class="st9" d="M337.2,503.9c21.4-1.5,37.5,7.7,51,23.3c7.4,8.5,6.6,15.1-2.2,22c-34.1,26.7-68.9,22.6-101.1-2.6
			c-17.7-13.8-17.6-14.2,2.2-25.2C303.2,512.5,318.7,501.5,337.2,503.9z"/>
		<path class="st9" d="M508.4,208.1c26.2,0.4,43.4,7.3,57.1,23.1c7.2,8.3,6.8,14.8-1.8,21.3c-36.9,27.9-77.3,20.6-107.8-13.1
			c-3.8-4.2-2.2-6.5,1-8.8C474.5,218.4,492.6,207.4,508.4,208.1z"/>
		<path class="st8" d="M799.4,269.5c-14.9,0.4-30.9-6-44.9-19.2c-7.7-7.3-6-13.4,0.1-20.2c18.3-20.8,52.2-28.1,79-16.1
			c10.3,4.6,20.5,10,29.7,17c2.6,1.9,6.4,3.7,2.3,7.3C847.3,254.6,828.7,270.3,799.4,269.5z"/>
		<path class="st10" d="M474.2,97.3c0-28,0.4-28.1,23.8-15.8c19.5,10.3,35.5,23.8,42,47.5c3.1,11.2,3.9,22.5,3.2,34
			c-0.6,9.7-8.1,13.5-18.4,10.9C493.1,165.8,471.1,129.9,474.2,97.3z"/>
		<path class="st11" d="M846.8,95c1.9,41.2-20.4,68.2-47.8,78.2c-13.4,4.9-21.3-0.7-21.2-15.3c0.1-45.8,25.2-70,61-84
			c5.4-2.1,7.9,0.6,7.9,6.4C846.8,85.3,846.8,90.1,846.8,95z"/>
		<path class="st10" d="M752.7,152.8c1.9,41.4-20.7,66.6-52.9,76.6c-9.6,3-11.5-3.1-13.5-8.7c-7-19.6,0.1-36.9,9.4-53.3
			c11-19.6,29.2-28.4,48.3-35.2c4.8-1.7,9.8-1.3,8.8,7.1C752.2,143.7,752.6,148.3,752.7,152.8z"/>
		<path class="st12" d="M635.4,205.7c0,1.9,0.1,3.8,0,5.6c-0.7,15.9-8.5,22.6-21.7,16.9c-22.8-9.9-42.6-29.2-43.6-62.5
			c-0.3-9.1,1.3-18.1,0.3-27.1c-0.8-6.9,2.6-7.5,7.4-6.7C607,137.2,635.4,173.6,635.4,205.7z"/>
		<path class="st13" d="M941.5,813c-18.3-1.2-36.8-1.9-54.1-9.9c-4.9-2.3-11.1-4.9-11-11.8c0.1-6.4,6.2-8.4,11-10.2
			c19.9-7.4,40-10.1,61.3-7.4c14.5,1.9,29.2,3.4,43.8,5.2c7.3,0.9,10.8,4.4,11.4,12.6c0.6,8.2-2.7,13-9.5,14.1
			C976.8,808.6,959.5,813.8,941.5,813z"/>
		<path class="st14" d="M768.6,467.9c-16.2,0.1-20.2-5.3-15.1-22.1c10.5-34.2,26.3-43.8,59.3-47.8c4.1-0.5,8.4-0.1,12.5-0.1
			c12.8,0.1,12.8,0.2,9.1,12.7c-8.4,28.3-24.5,48.1-52.1,56C777.4,468.1,772.7,467,768.6,467.9z"/>
		<path class="st15" d="M541.5,851c2.6-0.4,4.1,1.9,6.1,2.9c0.7,0.6,1.4,1.1,2.1,1.7l0,0c-0.6,7.3,4.1,6.9,8.6,6.7
			c1.6,0.3,3.3,0.3,4,2.4c-1,3.9-4.1,6.3-6.3,9.2c-24.2-16-50.7-25.3-78.3-32c-37.9-9.2-75.9-0.8-113.8-1.3
			c-11.9-0.2-24.1,0.9-36.2,1.5c-6.2,0.3-9.9-2.5-10.3-9.5c-0.5-8.5,4.7-8.6,10.3-8.5c42.8,0.6,85.4-3.6,128.2-2.3
			c23.6,0.7,45.6,7.4,66.7,18.5c0.7,0.6,1.5,1.2,2.2,1.8c0,0-0.1-0.1-0.1-0.1C528.1,849.6,535,849.8,541.5,851z"/>
		<path class="st6" d="M945.3,243.7c0.7,28.1-8.7,46.8-29.6,58.2c-10.2,5.6-16.5,3.5-19.8-8.2c-5.2-18.4-6.1-37.1,2.9-54.9
			c6.2-12.2,14.3-22.8,23.9-32c8.1-7.8,11.2-7.2,15.8,3.5C943.5,221.9,946.6,234,945.3,243.7z"/>
		<path class="st16" d="M428,269.9c0,3,0.7,6.2-0.1,8.9c-3.1,10.3-3.8,25-15.8,25.7c-14.2,0.8-22.1-13.2-29.9-24.4
			c-10.5-15.1-8.7-57.8,3.7-75.2c3.2-4.5,6-3.7,9.5-1.1C414.5,218.1,428.3,245.8,428,269.9z"/>
		<path class="st17" d="M779.8,853.7c18.4-13.7,38.5-23.3,60.4-28.1c9-2,18.1-3.9,27.4-3.8c24.4,0.2,48.8-1.1,73.1,0.4
			c18.3,1.1,36.7,1.8,55,1.8c5,0,8,1.7,8,7.6c0,6.3-2.5,10.1-8.4,10.4c-8.4,0.3-17,1.5-25-0.2c-13.5-2.8-27-2-40.4-1.8
			c-16.6,0.2-33-3.5-49.7-2.6c-36,1.9-70,10.6-101,31c-2.3,1.5-5,2.1-7.6,3.1c-4.1-1.7-4.4-5.6-4.6-9.5c0,0-0.1,0.1-0.1,0.1
			c4.6,0.4,9.3,1,8.6-6.6c0,0,0,0,0,0C777.2,855.7,778.8,855.4,779.8,853.7z"/>
		<path class="st10" d="M550.5,467.8c-28.8,2.3-52.6-24.2-61.1-47c-10.3-27.6-5.6-23.8,14.9-22.7c19,1,36.9,6.7,50.2,23.6
			c9,11.5,12.2,24.4,12,39c0,4.7-2.1,6.9-6.2,7.1C556.7,467.9,553.2,467.8,550.5,467.8z"/>
		<path class="st13" d="M419.8,807.9c-31,8.4-61.7,4.5-92.5-1.8c-9-1.9-10.2-7.6-10.1-16c0.1-8.9,5.3-10.1,11.3-11.2
			c24.9-4.7,50.1-4.7,75.3-4.7c7,0,13.5,2.8,20.3,2.9c0.7,0.6,1.5,1.2,2.2,1.8c0,0-0.1-0.1-0.1-0.1c1.4,6.4,6.5,8.4,11.1,10.4
			c3.7,1.6,6.1,3.3,5.6,7.9c0,0,0,0,0,0c-5.7,1.3-12.8-0.1-14.8,8.5c-1.4,0.2-2.7,0.4-4.1,0.6c-3.1-3.8-6.8-2.3-11.9-2
			C415.8,806,417.8,807,419.8,807.9z"/>
		<path class="st9" d="M771.4,501.4c18.4,0.1,33.3,5.5,47.1,15.2c5.3,3.7,4.2,7.3,1.1,10.7c-22.8,25.1-57.8,37.3-89.9,13.5
			c-9.7-7.2-9.7-16.4-0.3-24.1C742.3,506,757.1,501.1,771.4,501.4z"/>
		<path class="st8" d="M547.8,501.6c17.5-1.2,31.6,5.6,44.5,16c7.3,5.9,7.5,12.6,0.8,19.6c-18.6,19.2-49.3,22.7-77.5,3.2
			c-7.3-5.1-17.3-11.3-16.8-19.6c0.5-8.1,12.5-10.1,19.7-13.6C527.9,502.7,538.1,500.3,547.8,501.6z"/>
		<path class="st18" d="M945.2,889.9c41-1.5,81.8,3.1,122.8,2.3c11.3-0.2,20.4,6.6,24.1,20.2c4.2,15.1,8.3,30.3,18.7,42.5
			c4.3,5,1.2,6.6-4,7c-18.6,1.3-24.1-2.2-33.6-32.1c-6-18.8-6.3-20.1-24-19.9c-26.7,0.4-53.4-1.9-80-3c-17.7-0.7-35.8,0.4-53.4-4.3
			c6-7.9,13.6-3.6,20.6-2.9c8.8,0.8,16.8-0.5,25.6-5.1C956,889.3,949.7,894.3,945.2,889.9z"/>
		<path class="st19" d="M906.9,447.5c-7.6,0.4-17.1-0.2-21.3-8.2c-4.4-8.4,1.8-17.3,6-24.6c11.3-19.7,28.9-28.5,49.8-30.2
			c7.3-0.6,14.6-0.2,21.9-0.2c6.2,0,8.7,2.4,7,9.8C963.4,422.9,934.9,447.5,906.9,447.5z"/>
		<path class="st6" d="M848.9,349.9c-3.3-16.6,6.7-30.5,15-45c3.4-6,6.8-6.9,11.9-1.2c20.8,22.8,27,55.7,14.7,81.5
			c-0.6,1.3-1.2,2.7-2,3.9c-9.8,16.9-16.3,17.4-28.2,2C850.6,378.4,848.9,372.7,848.9,349.9z"/>
		<path class="st6" d="M369.1,384.4c20.9-0.1,39.9,5.1,54.6,22.8c4.8,5.7,7.8,12.3,10.2,19.1c4.1,11.4-2.7,19.7-16.1,21.2
			c-27.5,3.2-63-26.4-66.8-55.7c-0.6-4.7,1.3-7.2,5.5-7.4C360.7,384.3,364.9,384.4,369.1,384.4z"/>
		<path class="st8" d="M1106.4,468.4c-13.4,16.2-29.8,26.6-48.9,28.2c-17.1,1.4-33.7-3.8-47.5-16.3c-5.3-4.8-4.6-9.3-1-14.4
			c7-10,17-15.5,27.7-17.7C1062.4,442.9,1085.6,450.5,1106.4,468.4z"/>
		<path class="st6" d="M424,356.2c-0.8-22.5,9.7-38.9,20.9-55.1c2.7-3.9,5-2.4,7.7,0.1c24.8,23.2,25.1,74.2,0.7,97.9
			c-4.6,4.5-8.3,4.5-12.5,0C429.7,386.9,423.2,372.7,424,356.2z"/>
		<path class="st6" d="M269.7,497.2c-20.1-1.5-36.2-9.5-49.9-23.2c-3.9-3.9-4.2-7.6,0.8-10.7c21-12.9,43-20.6,67.5-13.7
			c10.8,3,18.6,10.5,25.4,19.5c4.5,5.9-0.2,9.1-3.6,11.8C297.6,490.8,283.3,495.2,269.7,497.2z"/>
		<path class="st9" d="M396.2,621.1c-13.7,1.6-25.8-5.1-37.9-11.9c-3.4-1.9-6-4.3-1.7-9.1c19.8-22.2,42.3-34.6,71.7-26.5
			c6.9,1.9,12.8,5.5,17.9,10c6.8,5.9,2.5,12.2-2.2,16.9C433.1,611.4,417.9,622.7,396.2,621.1z"/>
		<path class="st3" d="M1045.6,379.8c-1.5,41.3-19.8,60.1-54.3,69.7c-5.3,1.5-8.3-1-8.6-7.7c-1.2-30,19.7-64.9,45.5-75.1
			C1043.1,360.7,1045.6,362.6,1045.6,379.8z"/>
		<path class="st8" d="M923.4,621.3c-21.5,0.3-36-9.3-48.7-23.2c-6.2-6.7-4.6-11.8,1.9-16.9c18.6-14.6,52.2-12.8,71.9,4.3
			c4.3,3.7,8.3,7.8,12.8,11.3c6.9,5.5,4.7,9.4-1.5,12.9C947.5,616.7,935,622.6,923.4,621.3z"/>
		<path class="st10" d="M275.4,379.7c0.1-17.9,2.1-18.3,18.1-11.6c31.2,13.3,41.2,40.7,44.8,73.1c0.6,5.9,0.5,8.8-7.7,7.4
			c-12.7-2.1-23.6-6.5-33.4-15C281.1,419.9,275.6,401,275.4,379.7z"/>
		<path class="st20" d="M823.7,954.6c-26.4,1.3-52.8,2.6-79.3,3.9c-0.4,0-0.9-1-2.2-2.6c14.3-6.6,29.1-9.5,43.7-12
			c39.5-6.9,79.4-6.2,119.1-4c31.1,1.7,62.5,2.4,93.4,8.1c5.1,1,10.4,0.5,15.6,0.7c-8.5,3.9-17.5,0.9-26.2,1.8
			c-3.4,0.4-7.9-1.9-9.3,4c-50.2,0-100.4,0-150.6,0C826.5,952.5,825.1,952.7,823.7,954.6z"/>
		<path class="st6" d="M437,147.7c19.5-1.5,33.9,7.6,46.9,20.6c5.5,5.5,6.2,10.2-0.7,16c-28.1,23.5-66.4,6.9-82.9-20.5
			c-2.7-4.6,0.3-5.7,3.2-7.3C414.3,150.3,425.5,146,437,147.7z"/>
		<path class="st3" d="M885.4,147.4c9.6-0.5,20.9,3,31.7,8.9c4.3,2.3,6.3,4.6,2.9,9.1c-18.3,24.7-45.9,39.1-75.1,24
			c-15.8-8.1-15.9-13.4-2.4-25.5C854.4,153.4,867.3,147.2,885.4,147.4z"/>
		<path class="st21" d="M945.2,889.9c4.5,4.4,10.8-0.5,16.8,4.7c-8.7,4.6-16.8,5.9-25.6,5.1c-7-0.7-14.6-5-20.6,2.9
			c-1.4,0-2.8,0-4.2,0c-4.9-6.5-9.8-6.6-14.6,0.1c-5.4-3-11.3-1.1-16.8-2.2c-13.1-3.9-26.4-1.5-39.6-1.1c-0.7,0-1.4,2.2-2.1,3.4
			c-2.8,0-5.6,0-8.4,0c-1.7-2.1-3-1.8-4,0.6c-20.5,5.2-41.1,9.7-60.8,17.7c-5.4,2.2-10.7,4.6-16.2,6.5c-1.9,0.7-4.3,4.3-5.9,0.1
			c-1.3-3.2,2-4.6,3.7-5.7c11.9-7,23.6-14.3,36.3-19.7c19.2-8.1,38.6-14.7,59.4-15.1c19,0,38,0,56.9,0c3.4,0.2,6.9,0.3,10.3,0.5
			c0.7,1.1,1.3,1.1,2,0c1.4,0,2.9,0,4.3-0.1c8.3,1.2,16.4,6.8,25.1,1.8C942.4,889.5,943.8,889.7,945.2,889.9z"/>
		<path class="st20" d="M457.6,953.9c-16.1,0.1-32.1,0.2-48.2,0.3c-2.8-2.4-5.5-2.4-8.2,0c-15.4,0-30.8,0.1-46.1,0.1
			c-1.7-2.2-4-1.7-6.2-1.7c-8,0-16-0.1-24,0c-4.3,0.1-7.8-0.4-7.4-6.4c26.9-2,53.9-3.3,80.8-5.4c34.8-2.8,69.5-0.6,104.2-1.7
			c2.5-0.1,5.7-1.3,7.6,2.1c-1.4,8.3-7.4,9-13.4,9.1c-10.1,0.2-20.1-0.1-30.2,0.1C463.2,950.5,459.1,948.8,457.6,953.9z"/>
		<path class="st9" d="M736,262c-0.3,21.9-13.6,42.1-32.9,50c-8.9,3.6-13.9,0.4-12.7-11.4c1.2-11.6,0.4-24.2,8.1-34.6
			c6.4-8.7,14.4-15,23.8-18.7C731.4,243.8,736.2,249.2,736,262z"/>
		<path class="st22" d="M480.7,532.8c0.2,6.1-2,12.7,4.5,17c1,0.7,1.9,3.9,1.3,4.9c-6.3,11,10,21.7,0.3,32.6
			c-17.5-23.1-32.2-47.6-33.5-78.7c-0.6-14.4-0.1-28.8,2.5-43c3.2,0,6.5,0,9.7,0C465.1,489.4,472.2,511.3,480.7,532.8z"/>
		<path class="st19" d="M585.2,262.8c0-18,3.4-20.3,18.7-11.5c21.8,12.6,24.7,31.6,23,53.6c-0.6,8-6.2,8.2-12.3,6.4
			C598.6,306.8,582.8,282.9,585.2,262.8z"/>
		<path class="st16" d="M936.4,483.6c-4.9,17.4-12.9,32.2-28.4,41.3c-7.8,4.6-17.3,7.3-23.3,1.7c-7.1-6.7-0.3-15.8,3.2-23.2
			c6.8-14.2,16.9-24,32.3-25.9C925.5,479.6,931,481.6,936.4,483.6z"/>
		<path class="st19" d="M428.5,528.7c-16.3,0.9-25-10.6-33.5-22.6c-1.4-2-2.4-4.5-3.5-6.8c-3.1-6.6-8.9-15-4.2-20.4
			c4.9-5.6,14.1-2.6,21.4,0.2c14.6,5.7,29.4,26.6,30.3,42.8C439.5,532.2,432.5,527.7,428.5,528.7z"/>
		<path class="st23" d="M644,257.9c-2-9.8,1.3-18.7,8.1-26.6c4.5-5.2,8.3-6.7,13.5-0.6c12.6,14.5,12.9,44.9,0.3,59.3
			c-4.1,4.7-7.5,5.6-12.1,0.5C645.8,281.5,642.8,271,644,257.9z"/>
		<path class="st23" d="M646.2,361c-1.4-8.2,0.1-15.8,4.3-22.4c5.3-8.3,13.2-8.1,18.3,0.2c9.9,16.3,8,40.6-3.7,53.3
			c-3.5,3.8-5.6,4-9.2,0.1C647.9,383.2,644.1,373.1,646.2,361z"/>
		<path class="st18" d="M457.6,953.9c1.5-5.2,5.6-3.4,8.8-3.5c10.1-0.2,20.1,0.1,30.2-0.1c6-0.1,12.1-0.7,13.4-9.1
			c24.6,0.3,48.2,5.8,71.4,15.2C540,954.1,498.8,955.5,457.6,953.9z"/>
		<path class="st24" d="M514.1,907c5.3-4.3,12.1,0.6,18.2-3.7c-3.2-4.6-12-0.7-12-9c23.2,6.4,44.5,16.9,62.6,34.3
			C560.2,920.3,537.1,913.8,514.1,907z"/>
		<path class="st24" d="M767,862.1c0.2,3.9,0.5,7.8,4.6,9.5c-15.7,11.9-31.9,23.1-47.4,35.5C734.3,887.3,749.2,873.1,767,862.1z"/>
		<path class="st0" d="M907.5,977.3c-0.8,0.7-1.7,2-2.4,1.9c-17.8-2.1-33.7,7.5-50.9,9.6c-10.4,1.3-15.6-5.7-22.1-11.5
			C857.2,976.2,882.4,976.3,907.5,977.3z"/>
		<path class="st24" d="M317.4,946.3c-0.4,6,3.1,6.5,7.4,6.4c8-0.1,16,0,24,0c0,0.6,0,1.2,0,1.8c-28.3,1.3-56.6-0.9-85,0.6
			C281.3,948.3,299.4,948.3,317.4,946.3z"/>
		<path class="st25" d="M555.8,873.9c2.3-2.9,5.3-5.3,6.3-9.2c11.3,7.6,20.1,18.2,29.3,28.2c1.5,1.6,6,3,2.3,6.7
			c-2.5,2.6-4.2-0.2-6.2-1.7C577.1,889.9,566.4,881.9,555.8,873.9z"/>
		<path class="st0" d="M1137.7,1008.6c6.8-3.9,14.1-1.3,21.2-1.8c3.8-0.3,7.2-0.5,10.4-3.6c7.8-7.6,7.6-10.9-0.3-18.3
			c-2.7-2.5-7.9-1.7-8.3-7.1c16.3-0.9,23.1,5,21,18.4c-1,6.6-6.5,9.2-10.5,13.1C1160,1009.1,1148.9,1008.9,1137.7,1008.6z"/>
		<path class="st25" d="M978.6,954.4c1.4-5.9,5.9-3.6,9.3-4c8.7-1,17.6,2,26.2-1.8c8.5,2.8,17.8,0.7,27.5,5.8
			C1019.7,954.4,999.1,954.4,978.6,954.4z"/>
		<path class="st0" d="M692.2,930.2c-10.2,0.6-10.5-8.6-9.5-14.5c1.4-8.3,8.3-5,13.6-3.6C695,918.1,693.6,924.2,692.2,930.2z"/>
		<path class="st0" d="M949.3,977.3c-5,10-18.6,10-25.1,0C932.6,976.3,941,976.3,949.3,977.3z"/>
		<path class="st24" d="M443,797.2c0.5-4.6-1.9-6.3-5.6-7.9c-4.6-2.1-9.8-4.1-11.1-10.4c6.2,0.3,11.5,3.2,16.6,6.9
			C448.3,789.6,448.9,793.2,443,797.2z"/>
		<path class="st24" d="M465.5,465.6c-3.2,0-6.5,0-9.7,0c2.3-6.7,4.6-13.5,7.7-22.2C467.3,452,465.6,458.9,465.5,465.6z"/>
		<path class="st24" d="M899.3,887.1c-19,0-38,0-56.9,0c13.5-4.9,27.4-1.6,41-2.1C888.7,884.9,894.5,882.8,899.3,887.1z"/>
		<path class="st18" d="M838.4,902.6c0.7-1.2,1.4-3.4,2.1-3.4c13.2-0.4,26.5-2.8,39.6,1.1C866.3,901.8,852.2,899.1,838.4,902.6z"/>
		<path class="st18" d="M941,889.3c-8.7,5-16.8-0.6-25.1-1.8C924.3,887.7,932.9,885.2,941,889.3z"/>
		<path class="st25" d="M541.5,851c-6.4-1.2-13.4-1.4-16.8-9.1C531.3,842.8,537,845.5,541.5,851z"/>
		<path class="st18" d="M897,902.6c4.9-6.6,9.7-6.5,14.6-0.1C906.8,902.6,901.9,902.6,897,902.6z"/>
		<path class="st24" d="M428.2,805.7c2-8.7,9.1-7.3,14.8-8.5C439.3,802.3,434,804.5,428.2,805.7z"/>
		<path class="st25" d="M936.4,483.6c-5.4-2-10.8-4.1-16.3-6.1c4-0.3,8-0.5,11.9-0.8C937.3,476.3,937.2,479.7,936.4,483.6z"/>
		<path class="st24" d="M775.6,855.6c0.7,7.6-4,7-8.6,6.6C769,858.6,771.4,855.8,775.6,855.6z"/>
		<path class="st25" d="M558.2,862.3c-4.5,0.2-9.1,0.7-8.6-6.7C552.7,857.5,556.5,858.4,558.2,862.3z"/>
		<path class="st24" d="M419.8,807.9c-2-1-4-2-7.5-3.7c5.1-0.4,8.7-1.8,11.9,2C423.3,808.7,421.5,808.2,419.8,807.9z"/>
		<path class="st0" d="M1148.1,977.8c-2.1,6.5-4.2,3.1-6.2,0C1144,977.8,1146.1,977.8,1148.1,977.8z"/>
		<path class="st25" d="M401.1,954.3c2.7-2.4,5.5-2.4,8.2,0C406.6,954.2,403.9,954.3,401.1,954.3z"/>
		<path class="st0" d="M693.7,959.4c-1.3-0.2-2.9-0.4-2.9-2.3c0-1.9,1.6-2,2.9-2.3C693.7,956.4,693.7,957.9,693.7,959.4z"/>
		<path class="st0" d="M1007.9,977.8c-2.7,2.7-5.5,2.7-8.2,0C1002.4,977.8,1005.1,977.8,1007.9,977.8z"/>
		<path class="st25" d="M348.7,954.5c0-0.6,0-1.2,0-1.8c2.2,0.1,4.5-0.5,6.2,1.7C352.9,954.4,350.8,954.4,348.7,954.5z"/>
		<path class="st18" d="M825.9,903.3c1-2.5,2.4-2.7,4-0.6C828.6,902.9,827.3,903.1,825.9,903.3z"/>
		<path class="st24" d="M518.3,894c-1.7,0.1-3.2-0.3-4.2-1.9C516,891.5,517.5,891.8,518.3,894z"/>
		<path class="st26" d="M823.7,954.6c1.4-1.9,2.8-2,4.3-0.2C826.6,954.4,825.2,954.5,823.7,954.6z"/>
		<path class="st24" d="M779.8,853.7c-1,1.7-2.6,2-4.2,1.9C776.2,852.9,778,853.3,779.8,853.7z"/>
		<path class="st1" d="M694.3,632.6c-1.5,2.7-2.8,3.1-4-0.2C691.6,632.4,693,632.5,694.3,632.6z"/>
		<path class="st18" d="M911.6,887.6c-0.7,1.1-1.3,1.1-2,0C910.3,887.3,911,887.3,911.6,887.6z"/>
		<path class="st25" d="M549.6,855.7c-0.7-0.6-1.4-1.1-2.1-1.7C549,853.5,549.3,854.6,549.6,855.7z"/>
		<path class="st25" d="M524.7,842c-0.7-0.6-1.5-1.2-2.2-1.8C524,839.7,524.4,840.8,524.7,842z"/>
		<path class="st24" d="M426.3,778.9c-0.7-0.6-1.5-1.2-2.2-1.8C425.5,776.8,426,777.7,426.3,778.9z"/>
		<path class="st0" d="M773.5,1008.6c0.5-3.2,2.5-4.2,5.2-4.1c25.2,1.2,50.2-1.2,75.3-4.4c8.7-1.1,17,1.9,25.3,4.4
			c2,0.6,2.7,2.1,3,4.1C846.1,1008.6,809.8,1008.6,773.5,1008.6z"/>
		<path class="st0" d="M913.8,1008.6c0.5-3.2,2.5-4.1,5.3-4.1c13.9,0,27.9,0,41.8,0c2.7,0,4.8,0.9,5.3,4.1
			C948.6,1008.6,931.2,1008.6,913.8,1008.6z"/>
		<path class="st0" d="M987,1008.6c0.2-1.4,0.4-3.2,2.1-3.2c1.7,0,1.9,1.7,2.1,3.2C989.8,1008.6,988.4,1008.6,987,1008.6z"/>
	</g>
</g>
</svg>
