<?xml version="1.0" encoding="UTF-8"?>
<svg id="_圖層_1" data-name="圖層 1" xmlns="http://www.w3.org/2000/svg" viewBox="0 0 60.12 60.12">
  <defs>
    <style>
      .cls-1 {
        fill: #ed9a21;
      }

      .cls-2 {
        fill: #fff;
      }

      .cls-3 {
        fill: #ffbd3b;
      }

      .cls-4 {
        fill: #755a36;
      }
    </style>
  </defs>
  <circle class="cls-3" cx="30.06" cy="30.06" r="30.06"/>
  <path class="cls-1" d="m15.91,44.21c-7.8-7.8-7.8-20.5,0-28.3,7.8-7.8,20.5-7.8,28.3,0l1.41-1.41c-8.58-8.58-22.55-8.58-31.13,0-8.58,8.58-8.58,22.55,0,31.13l1.41-1.41Z"/>
  <path class="cls-2" d="m44.21,15.91h0c7.8,7.8,7.8,20.5,0,28.31-7.8,7.8-20.5,7.8-28.3,0h0s-1.41,1.41-1.41,1.41h0c8.58,8.58,22.55,8.58,31.13,0s8.58-22.55,0-31.13h0s-1.41,1.41-1.41,1.41Z"/>
  <g>
    <path class="cls-4" d="m21.63,30.22h1.21l.82-.69.83.62c.06.04.1.1.1.2,0,.16-.12.26-.3.26h-2.7l-.05.49-.12.55c.9.52,2.34,1.96,2.59,2.94v.34c-.04.16-.19.21-.29.21-.16,0-.26-.09-.3-.22-.3-.74-.97-2.22-2.05-3.02-.42,1.88-1.48,3.64-3.22,4.28-.03.01-.05.03-.08.03-.07,0-.09-.06-.09-.12,0-.04.01-.08.05-.1,1.62-.96,2.61-2.95,2.89-4.94l.05-.43h-2.72l-.1-.39h2.86c.05-.74.1-1.76.1-3.02h-1.14c-.78,1.57-1.6,2.39-1.74,2.39-.06,0-.09-.05-.09-.1,0-.04.01-.08.04-.12,1.51-2,1.92-4.16,1.99-4.55v-.33l.74.12c.18.03.26.1.26.21,0,.09-.08.16-.18.16s-.17.03-.17.08c-.18.58-.42,1.18-.66,1.75h2.34l.81-.69.79.58c.08.08.13.17.13.26,0,.05-.04.23-.26.23h-2.2l-.13,3.02Zm3.46-4.56l.69.6h2.96l.31-.42.6.39s.05.06.05.13c0,.17-.14.23-.18.25-.09.04-.13.09-.13.13v8.98c0,.06-.07.13-.14.17-.43.1-.51.12-.51-.16v-.96h-3.02v1.05c0,.17-.12.21-.52.3-.08,0-.12-.1-.12-.3v-10.17Zm.64,8.72h3.02v-7.74h-3.02v7.74Z"/>
    <path class="cls-4" d="m31.3,29.39l-.1-.39h6.8c.18-.31.38-.69.55-1.09l.3-.96.05-.4.77.22c.13.05.2.12.2.2,0,.17-.14.17-.17.17l-.2.07-.6,1.07-.52.74h2.85l.82-.69.83.62c.07.04.1.12.1.19,0,.14-.1.26-.3.26h-11.38Zm.51-3.25l-.1-.39h4.81v-1.46l.66.12c.21.03.3.1.3.21s-.07.18-.17.21c-.1.03-.16.1-.16.2v.73h3.25l.83-.69.82.62c.06.04.1.12.1.19,0,.14-.1.26-.29.26h-10.06Zm1.7,4.19l.49.35h5.54l.34-.36.6.4c.05.03.08.06.08.12s-.05.18-.21.22c-.09.03-.16.09-.16.16v4.94c.01.08-.05.14-.13.18-.39.1-.51.13-.51-.18v-.61h-5.4v.49c0,.07-.05.13-.16.18-.43.09-.49.1-.49-.21v-5.68Zm1.25-1.83c-.09-.68-.42-1.38-.74-1.65-.04-.03-.05-.06-.05-.1s.04-.1.12-.1c.31,0,1.31,1.25,1.31,1.61,0,.22-.04.51-.31.51-.17,0-.3-.14-.33-.26Zm-.6,2.57v1.79h5.4v-1.79h-5.4Zm0,2.18v1.9h5.4v-1.9h-5.4Z"/>
  </g>
</svg>