<?xml version="1.0" encoding="utf-8"?>
<!-- Generator: Adobe Illustrator 27.7.0, SVG Export Plug-In . SVG Version: 6.00 Build 0)  -->
<svg version="1.1" id="_圖層_1" xmlns="http://www.w3.org/2000/svg" xmlns:xlink="http://www.w3.org/1999/xlink" x="0px" y="0px"
	 viewBox="0 0 60.1 60.1" style="enable-background:new 0 0 60.1 60.1;" xml:space="preserve">
<style type="text/css">
	.st0{fill:#BC9144;}
	.st1{fill:#C17E25;}
	.st2{fill:#A5A3A0;}
	.st3{fill:#755A36;}
</style>
<circle class="st0" cx="30.1" cy="30.1" r="30.1"/>
<path class="st1" d="M15.9,44.2c-7.8-7.8-7.8-20.5,0-28.3s20.5-7.8,28.3,0l1.4-1.4c-8.6-8.6-22.5-8.6-31.1,0s-8.6,22.5,0,31.1
	L15.9,44.2L15.9,44.2z"/>
<path class="st2" d="M44.2,15.9L44.2,15.9c7.8,7.8,7.8,20.5,0,28.3c-7.8,7.8-20.5,7.8-28.3,0l0,0l-1.4,1.4l0,0
	c8.6,8.6,22.5,8.6,31.1,0s8.6-22.5,0-31.1l0,0L44.2,15.9L44.2,15.9z"/>
<g>
	<path class="st3" d="M21.6,30.2h1.2l0.8-0.7l0.8,0.6c0.1,0,0.1,0.1,0.1,0.2c0,0.2-0.1,0.3-0.3,0.3h-2.7l0,0.5l-0.1,0.5
		c0.9,0.5,2.3,2,2.6,2.9v0.3c0,0.2-0.2,0.2-0.3,0.2c-0.2,0-0.3-0.1-0.3-0.2c-0.3-0.7-1-2.2-2-3c-0.4,1.9-1.5,3.6-3.2,4.3
		c0,0,0,0-0.1,0c-0.1,0-0.1-0.1-0.1-0.1c0,0,0-0.1,0-0.1c1.6-1,2.6-3,2.9-4.9l0-0.4h-2.7l-0.1-0.4H21c0-0.7,0.1-1.8,0.1-3H20
		c-0.8,1.6-1.6,2.4-1.7,2.4c-0.1,0-0.1,0-0.1-0.1c0,0,0-0.1,0-0.1c1.5-2,1.9-4.2,2-4.6v-0.3l0.7,0.1c0.2,0,0.3,0.1,0.3,0.2
		c0,0.1-0.1,0.2-0.2,0.2s-0.2,0-0.2,0.1c-0.2,0.6-0.4,1.2-0.7,1.8h2.3l0.8-0.7l0.8,0.6c0.1,0.1,0.1,0.2,0.1,0.3c0,0,0,0.2-0.3,0.2
		h-2.2L21.6,30.2L21.6,30.2z M25.1,25.7l0.7,0.6h3l0.3-0.4l0.6,0.4c0,0,0,0.1,0,0.1c0,0.2-0.1,0.2-0.2,0.2c-0.1,0-0.1,0.1-0.1,0.1v9
		c0,0.1-0.1,0.1-0.1,0.2c-0.4,0.1-0.5,0.1-0.5-0.2v-1h-3v1c0,0.2-0.1,0.2-0.5,0.3c-0.1,0-0.1-0.1-0.1-0.3L25.1,25.7L25.1,25.7z
		 M25.7,34.4h3v-7.7h-3V34.4z"/>
	<path class="st3" d="M31.3,29.4L31.2,29H38c0.2-0.3,0.4-0.7,0.5-1.1l0.3-1l0-0.4l0.8,0.2c0.1,0,0.2,0.1,0.2,0.2
		c0,0.2-0.1,0.2-0.2,0.2l-0.2,0.1l-0.6,1.1L38.4,29h2.8l0.8-0.7l0.8,0.6c0.1,0,0.1,0.1,0.1,0.2c0,0.1-0.1,0.3-0.3,0.3L31.3,29.4
		L31.3,29.4z M31.8,26.1l-0.1-0.4h4.8v-1.5l0.7,0.1c0.2,0,0.3,0.1,0.3,0.2s-0.1,0.2-0.2,0.2c-0.1,0-0.2,0.1-0.2,0.2v0.7h3.2l0.8-0.7
		l0.8,0.6c0.1,0,0.1,0.1,0.1,0.2c0,0.1-0.1,0.3-0.3,0.3L31.8,26.1L31.8,26.1z M33.5,30.3l0.5,0.4h5.5l0.3-0.4l0.6,0.4
		c0,0,0.1,0.1,0.1,0.1s0,0.2-0.2,0.2c-0.1,0-0.2,0.1-0.2,0.2v4.9c0,0.1,0,0.1-0.1,0.2c-0.4,0.1-0.5,0.1-0.5-0.2v-0.6h-5.4V36
		c0,0.1,0,0.1-0.2,0.2c-0.4,0.1-0.5,0.1-0.5-0.2L33.5,30.3L33.5,30.3z M34.8,28.5c-0.1-0.7-0.4-1.4-0.7-1.6c0,0,0-0.1,0-0.1
		s0-0.1,0.1-0.1c0.3,0,1.3,1.2,1.3,1.6c0,0.2,0,0.5-0.3,0.5C34.9,28.8,34.8,28.6,34.8,28.5L34.8,28.5z M34.2,31.1v1.8h5.4v-1.8H34.2
		z M34.2,33.2v1.9h5.4v-1.9H34.2z"/>
</g>
</svg>
