<?xml version="1.0" encoding="utf-8"?>
<!-- Generator: Adobe Illustrator 27.2.0, SVG Export Plug-In . SVG Version: 6.00 Build 0)  -->
<svg version="1.1" id="圖層_1" xmlns="http://www.w3.org/2000/svg" xmlns:xlink="http://www.w3.org/1999/xlink" x="0px" y="0px"
	 viewBox="0 0 595.28 702" style="enable-background:new 0 0 595.28 702;" xml:space="preserve">
<style type="text/css">
	.st0{fill:#CBE2DB;}
	.st1{fill:#45B683;}
</style>
<g>
	<g>
		<g>
			<path class="st0" d="M304.16,623.65c17.03-0.28,34.1-0.61,51.13,0c-1.69,2.21-4.33,3.06-6.59,3.01
				c-6.77-0.05-12.61,4.52-19.52,3.95c-1.74-0.14-5.03-0.66-6.02,2.3c-1.08,3.15,3.15,2.54,3.48,4.94c0.05,0.19,0.05,0.33,0.09,0.52
				c-9.69,0.05-19.33,0.05-29.02,0.24c-1.46,0.05-3.29-0.99-4.47,0.99c-1.98,0-3.95,0-5.93,0c-0.05-0.28-0.05-0.61-0.09-0.89
				c0.85-1.41,2.26-1.46,3.48-1.18c5.41,1.22,9.6-2.02,14.02-4.23c4-1.98,3.95-4.05,0.19-6.59
				C303.88,625.95,302.51,625.3,304.16,623.65z"/>
			<path class="st0" d="M287.32,638.7c0,0.28,0.05,0.61,0.09,0.89c-85,0-169.95,0-254.95,0c0-0.33,0-0.61,0-0.94
				c51.41-0.05,102.83-0.05,154.24-0.09c26.34-0.05,52.73-0.09,79.07-0.19C272.92,638.47,280.12,638.56,287.32,638.7z"/>
			<path class="st0" d="M293.29,639.6c1.18-1.98,2.96-0.94,4.47-0.99c9.69-0.19,19.33-0.19,29.02-0.24c3.95,0,7.86,0,11.81,0
				c17.08,0,34.1,0,51.18,0c4.94,0,9.83,0,14.77,0c8.18,0,16.42,0,24.6,0c3.29,0,6.59,0,9.83,0c0.66,0,1.32,0,1.98,0
				c12.79,0.09,25.54,0.24,38.34,0.33c0.05,0.28,0.05,0.61,0.05,0.89C417.33,639.6,355.29,639.6,293.29,639.6z"/>
			<path class="st0" d="M479.33,639.6c0-0.28,0-0.61-0.05-0.89c8.89,0,17.78,0,26.67,0c-0.05,0.28-0.09,0.61-0.05,0.89
				C497.07,639.6,488.17,639.6,479.33,639.6z"/>
			<path class="st0" d="M505.91,639.6c0-0.33,0-0.61,0.05-0.89c1.32-0.09,2.59-0.19,3.9-0.33c5.27,0.09,10.49,0.19,15.76,0.28
				c0,0.33,0,0.61,0,0.94C519.03,639.6,512.45,639.6,505.91,639.6z"/>
			<path class="st0" d="M200.81,414.51c6.73,10.35,15.15,18.44,26.34,22.86c6.73,2.68,13.55,5.13,20.27,7.95
				c7.81,3.29,14.44,8.56,20.13,15.15c0.89,1.03,1.69,2.3,3.25,1.88c1.51-0.47,1.83-1.83,1.79-3.34
				c-0.28-24.79,1.98-49.81-5.74-73.99c-4.85-15.15-12.28-28.65-21.83-40.88c-10.11-12.98-21.59-24.37-34.01-34.67
				c-1.51-1.22-3.15-2.49-4-5.13c7.06,0.47,13.17,3.48,19.29,6.02c22.96,9.6,39.98,26.67,52.03,49.63
				c1.83,3.48,3.57,7.01,5.13,10.68c0.52,1.18,0.71,2.49,2.07,2.49c1.22,0,1.27-1.51,1.65-2.35c3.76-8.51,8.42-16.46,13.59-24.08
				c14.21-20.84,33.21-34.1,56.12-41.3c2.21-0.71,4.33-1.41,7.39-0.75c-5.5,5.08-10.72,9.78-15.81,14.63
				c-21.59,20.56-39.65,43.7-46.57,74.89c-1.41,6.4-2.73,12.79-2.73,19.47c-0.05,15.9-0.38,31.8,0.24,47.7
				c0.56,1.6,1.18,1.36,1.88,0.09c11.1-12.56,25.78-17.83,40.41-23.43c19.24-7.29,30.9-21.64,34.43-43.7
				c1.08-6.59,0.05-13.17,1.32-20.79c3.67,6.12,4.94,12.09,5.36,18.02c1.79,27.66-9.6,47.98-30.9,62.47
				c-3.53,2.4-7.2,4.56-11.05,6.21c-22.2,9.45-32.69,28.65-37.63,52.54c-1.74,8.42-2.35,16.93-1.93,25.5
				c0.38,8.42-1.03,15.99-4.75,23.61c-4.14,8.47-6.82,17.73-10.63,27.94c-3.43-9.97-5.97-18.96-10.3-26.95
				c-4.7-8.7-4.75-17.83-4.89-27.38c-0.28-21.17-4.94-41.02-17.59-57.9c-5.32-7.06-12.37-11.48-19.9-15.24
				c-11.05-5.5-21.73-11.67-29.54-22.2c4.56-5.13-3.1-10.16-0.14-15.33c0.28-0.47-0.09-1.98-0.61-2.3
				C199.92,420.49,200.91,417.34,200.81,414.51z"/>
			<path class="st0" d="M287.32,638.7c-7.2-0.09-14.39-0.24-21.59-0.33c-1.27-2.4,0.09-6.77-2.35-7.53
				c-4.19-1.27-3.53-4.19-3.57-7.2c9.78-0.24,11.57-2.45,11.81-13.36c0.42-17.22-6.63-31.38-15.95-44.36
				c-13.55-18.91-31.28-31.52-52.68-37.87c-10.11-3.01-20.37-5.13-30.95-5.13c-12.7,0.05-25.45-0.33-38.05,2.07
				c-3.29,0.61-5.17-0.38-5.22-4.7c-0.09-9.36-0.33-9.88,8.37-10.91c17.03-1.98,33.87-5.93,51.13-5.6
				c28.6,0.56,51.55,13.08,68.39,37.91c12.79,18.86,21.03,40.12,26.86,62.56c0.52,1.93,0.24,4.7,3.29,5.69
				c4.23-17.64,10.49-34.39,18.39-50.43c9.69-19.62,21.83-36.83,41.07-46.62c16.13-8.23,33.02-10.54,50.9-8.33
				c11.99,1.46,23.94,3.57,36.03,4.42c2.26,0.14,4.28,1.6,6.68,1.22c1.46-0.24,2.02,0.8,2.02,2.26c0,3.2,0.05,6.35-0.05,9.55
				c-0.05,2.26-1.41,2.78-3.29,2.96c-4.09,0.42-8.04-0.89-12.09-1.27c-22.67-2.07-45.02-1.74-66.61,7.24
				c-10.96,4.56-20.7,11.01-29.63,19.19c-12.79,11.71-21.17,26.53-27.94,42.71c-2.45-0.66-5.74-2.21-6.4,1.69
				c-0.47,2.78-0.33,7.1,4.47,6.82c-0.33,3.9-0.24,7.81,0.66,11.62c-0.61,0.09-1.36,0.19-1.36,1.08c0,0.89,0.75,0.94,1.36,1.08
				c1.74,2.49,1.18,6.07,3.15,8.47c-1.65,1.65-0.28,2.3,0.85,3.06c3.76,2.49,3.81,4.56-0.19,6.59c-4.42,2.21-8.61,5.46-14.02,4.23
				C289.58,637.2,288.17,637.29,287.32,638.7z"/>
			<path class="st0" d="M259.8,623.6c0.05,3.01-0.66,5.93,3.57,7.2c2.45,0.75,1.08,5.13,2.35,7.53
				c-26.34,0.05-52.73,0.14-79.07,0.19c-51.41,0.05-102.83,0.09-154.24,0.09c-4.23-1.51-6.63-4.52-5.83-9.45
				c0.85-4.94,4.37-5.88,8.47-5.88c30.81,0.05,61.62,0.05,92.48,0c42.15,0,84.25-0.05,126.39-0.05
				C255.9,623.32,257.87,623.51,259.8,623.6z"/>
			<path class="st0" d="M509.86,638.37c-1.32,0.09-2.59,0.19-3.9,0.33c-8.89,0-17.78,0-26.67,0c-12.79-0.09-25.54-0.24-38.34-0.33
				c-0.09-0.66-0.19-1.51-0.99-1.51s-0.89,0.8-0.99,1.51c-3.29,0-6.59,0-9.83,0c-0.24-1.55-1.18-1.93-2.49-1.93
				c-6.54,0-13.12,0-19.66,0c-1.27,0-2.26,0.42-2.49,1.93c-4.94,0-9.83,0-14.77,0c-0.14-0.89-0.52-1.65-1.41-1.93
				c-3.9-1.18-7.86-2.59-11.9-2.07c-11.76,1.51-23.52,2.68-35.42,2.07c-1.27-0.05-2.21,0.42-2.45,1.93c-3.95,0-7.86,0-11.81,0
				c-0.05-0.19-0.05-0.33-0.09-0.52c-0.33-2.35-4.56-1.74-3.48-4.94c0.99-2.96,4.28-2.45,6.02-2.3c6.91,0.56,12.75-4,19.52-3.95
				c2.26,0,4.85-0.8,6.59-3.01c3.62,0,7.2,0,10.82-0.05c3.01,2.73,5.5,6.02,10.4,5.41c8.09-0.99,15.57-5.5,23.94-4.52
				c0.33,0.05,0.75-0.56,1.13-0.89c2.63-0.42,5.22-0.42,7.86,0c3.06,4.7,9.5,4.7,11.81,0c7.9-0.38,15.76-0.66,23.66,0.24
				c1.32,1.27,2.59,1.27,3.86,0c21.03-0.71,42.05-0.8,63.03,0c0.99,1.46,1.98,3.06,2.92,0c1.98,0,3.95,0,5.93,0
				c0.19,2.54,2.63,2.16,3.9,3.34c3.72,3.48,3.81,4.99,0.14,8.61c-1.51,1.46-3.1,1.55-4.89,1.69
				C516.49,637.76,513.06,636.54,509.86,638.37z"/>
			<path class="st0" d="M306.89,209.47c0.24,15.9-7.57,26.2-19.94,33.54c-2.59,1.55-4.09,0.19-5.64-1.03
				c-18.53-13.97-22.96-32.6-10.96-54.33c3.57-6.44,8-12.28,12.61-17.97c1.88-2.3,3.48-2.96,5.6-0.38
				c7.86,9.78,15.1,20.04,18.3,32.79C307.4,204.44,306.89,207.03,306.89,209.47z"/>
			<path class="st0" d="M216.52,590.53c-13.12-2.68-26.34-3.72-39.65-2.87c-15.48,1.03-30.95,1.51-46.38,2.26
				c-14.16,0.66-28.27,1.83-42.43,1.88c-5.79,0-8,1.98-9.31,8.28c-0.85,4.05-1.93,8-4.19,11.48c-2.73,4.14-8.42,6.21-12.61,4.61
				c-1.32-0.52-2.59-1.55-1.27-3.06c4.61-5.22,6.35-11.9,8.37-18.49c2.49-8.14,8.14-11.38,15.9-11.29c9.83,0.14,19.71-0.28,29.54,0
				c12.28,0.38,24.46-0.99,36.69-1.27c14.96-0.38,29.92-1.88,44.88-1.83c6.91,0,13.74,1.55,20.46,3.29
				c0.47,0.75,1.22,0.89,1.98,0.89c0.33,0,0.61,0.09,0.94,0.19c0,3.9,4.14,2.02,5.64,4.23
				C222.22,590.82,219.02,588.56,216.52,590.53z"/>
			<path class="st0" d="M126.82,294.75c12.32-0.14,20.98,5.03,27.89,13.74c4.19,5.27,3.76,8.18-1.69,11.62
				c-16.32,10.21-28.65,9.97-44.22-1.88c-3.76-2.87-7.01-6.3-10.16-9.83c-1.55-1.74-1.46-2.96,0.52-4.05
				C108.34,299.41,117.41,294.09,126.82,294.75z"/>
			<path class="st0" d="M473.26,306.14c-7.62,8.89-15.81,17.17-27.24,19.76c-11.2,2.54-21.83,0.56-30.95-7.43
				c-3.25-2.82-2.16-6.07,0.09-9.03c12.28-16.18,26.86-17.17,42.66-11.76C463.24,299.6,468.42,302.28,473.26,306.14z"/>
			<path class="st0" d="M437.75,430.65c-8.04,0.47-15.19-2.49-21.92-6.68c-5.55-3.48-6.02-7.71-1.65-12.75
				c9.88-11.38,22.01-12.79,35.98-7.76c5.74,2.07,11.05,5.46,16.18,9.08c1.98,1.36,2.78,2.35,0.66,4.23
				C458.49,424.3,449.37,430.51,437.75,430.65z"/>
			<path class="st0" d="M133.31,400.92c10.07-0.71,17.64,3.62,23.99,10.96c3.48,4,3.1,7.1-1.03,10.35
				c-16.04,12.56-32.41,10.63-47.56-1.22c-8.33-6.49-8.28-6.68,1.03-11.85C117.32,404.97,124.61,399.79,133.31,400.92z"/>
			<path class="st0" d="M213.84,261.78c12.32,0.19,20.41,3.43,26.86,10.87c3.39,3.9,3.2,6.96-0.85,10.02
				c-17.36,13.12-36.36,9.69-50.71-6.16c-1.79-1.98-1.03-3.06,0.47-4.14C197.9,266.62,206.41,261.45,213.84,261.78z"/>
			<path class="st0" d="M350.73,290.66c-7.01,0.19-14.54-2.82-21.12-9.03c-3.62-3.43-2.82-6.3,0.05-9.5
				c8.61-9.78,24.55-13.22,37.16-7.57c4.85,2.16,9.64,4.7,13.97,8c1.22,0.89,3.01,1.74,1.08,3.43
				C373.26,283.65,364.51,291.04,350.73,290.66z"/>
			<path class="st0" d="M197.76,209.66c0-13.17,0.19-13.22,11.2-7.43c9.17,4.85,16.7,11.2,19.76,22.34
				c1.46,5.27,1.83,10.58,1.51,15.99c-0.28,4.56-3.81,6.35-8.66,5.13C206.65,241.88,196.3,224.99,197.76,209.66z"/>
			<path class="st0" d="M373.02,208.58c0.89,19.38-9.6,32.08-22.48,36.78c-6.3,2.3-10.02-0.33-9.97-7.2
				c0.05-21.54,11.85-32.93,28.69-39.51c2.54-0.99,3.72,0.28,3.72,3.01C373.02,204.01,373.02,206.27,373.02,208.58z"/>
			<path class="st0" d="M328.76,235.77c0.89,19.47-9.74,31.33-24.88,36.03c-4.52,1.41-5.41-1.46-6.35-4.09
				c-3.29-9.22,0.05-17.36,4.42-25.07c5.17-9.22,13.74-13.36,22.72-16.56c2.26-0.8,4.61-0.61,4.14,3.34
				C328.52,231.49,328.71,233.65,328.76,235.77z"/>
			<path class="st0" d="M273.58,260.65c0,0.89,0.05,1.79,0,2.63c-0.33,7.48-4,10.63-10.21,7.95c-10.72-4.66-20.04-13.74-20.51-29.4
				c-0.14-4.28,0.61-8.51,0.14-12.75c-0.38-3.25,1.22-3.53,3.48-3.15C260.22,228.43,273.58,245.55,273.58,260.65z"/>
			<path class="st0" d="M417.57,546.32c-8.61-0.56-17.31-0.89-25.45-4.66c-2.3-1.08-5.22-2.3-5.17-5.55
				c0.05-3.01,2.92-3.95,5.17-4.8c9.36-3.48,18.82-4.75,28.83-3.48c6.82,0.89,13.74,1.6,20.6,2.45c3.43,0.42,5.08,2.07,5.36,5.93
				c0.28,3.86-1.27,6.12-4.47,6.63C434.17,544.25,426.04,546.69,417.57,546.32z"/>
			<path class="st0" d="M336.24,383.99c-7.62,0.05-9.5-2.49-7.1-10.4c4.94-16.09,12.37-20.6,27.89-22.48
				c1.93-0.24,3.95-0.05,5.88-0.05c6.02,0.05,6.02,0.09,4.28,5.97c-3.95,13.31-11.52,22.63-24.51,26.34
				C340.38,384.08,338.17,383.56,336.24,383.99z"/>
			<path class="st0" d="M229.41,564.19c1.22-0.19,1.93,0.89,2.87,1.36c0.33,0.28,0.66,0.52,0.99,0.8l0,0
				c-0.28,3.43,1.93,3.25,4.05,3.15c0.75,0.14,1.55,0.14,1.88,1.13c-0.47,1.83-1.93,2.96-2.96,4.33
				c-11.38-7.53-23.85-11.9-36.83-15.05c-17.83-4.33-35.7-0.38-53.53-0.61c-5.6-0.09-11.34,0.42-17.03,0.71
				c-2.92,0.14-4.66-1.18-4.85-4.47c-0.24-4,2.21-4.05,4.85-4c20.13,0.28,40.17-1.69,60.3-1.08c11.1,0.33,21.45,3.48,31.37,8.7
				c0.33,0.28,0.71,0.56,1.03,0.85l-0.05-0.05C223.11,563.53,226.36,563.63,229.41,564.19z"/>
			<path class="st0" d="M419.36,278.52c0.33,13.22-4.09,22.01-13.92,27.38c-4.8,2.63-7.76,1.65-9.31-3.86
				c-2.45-8.66-2.87-17.45,1.36-25.82c2.92-5.74,6.73-10.72,11.24-15.05c3.81-3.67,5.27-3.39,7.43,1.65
				C418.51,268.27,419.97,273.96,419.36,278.52z"/>
			<path class="st0" d="M176.02,290.85c0,1.41,0.33,2.92-0.05,4.19c-1.46,4.85-1.79,11.76-7.43,12.09
				c-6.68,0.38-10.4-6.21-14.06-11.48c-4.94-7.1-4.09-27.19,1.74-35.37c1.51-2.12,2.82-1.74,4.47-0.52
				C169.67,266.48,176.17,279.51,176.02,290.85z"/>
			<path class="st0" d="M341.51,565.46c8.66-6.44,18.11-10.96,28.41-13.22c4.23-0.94,8.51-1.83,12.89-1.79
				c11.48,0.09,22.96-0.52,34.39,0.19c8.61,0.52,17.26,0.85,25.87,0.85c2.35,0,3.76,0.8,3.76,3.57c0,2.96-1.18,4.75-3.95,4.89
				c-3.95,0.14-8,0.71-11.76-0.09c-6.35-1.32-12.7-0.94-19-0.85c-7.81,0.09-15.52-1.65-23.38-1.22
				c-16.93,0.89-32.93,4.99-47.51,14.58c-1.08,0.71-2.35,0.99-3.57,1.46c-1.93-0.8-2.07-2.63-2.16-4.47l-0.05,0.05
				c2.16,0.19,4.37,0.47,4.05-3.1l0,0C340.28,566.4,341.04,566.26,341.51,565.46z"/>
			<path class="st0" d="M233.65,383.94c-13.55,1.08-24.74-11.38-28.74-22.11c-4.85-12.98-2.63-11.2,7.01-10.68
				c8.94,0.47,17.36,3.15,23.61,11.1c4.23,5.41,5.74,11.48,5.64,18.35c0,2.21-0.99,3.25-2.92,3.34
				C236.56,383.99,234.92,383.94,233.65,383.94z"/>
			<path class="st0" d="M172.17,543.92c-14.58,3.95-29.02,2.12-43.51-0.85c-4.23-0.89-4.8-3.57-4.75-7.53
				c0.05-4.19,2.49-4.75,5.32-5.27c11.71-2.21,23.57-2.21,35.42-2.21c3.29,0,6.35,1.32,9.55,1.36c0.33,0.28,0.71,0.56,1.03,0.85
				l-0.05-0.05c0.66,3.01,3.06,3.95,5.22,4.89c1.74,0.75,2.87,1.55,2.63,3.72l0,0c-2.68,0.61-6.02-0.05-6.96,4
				c-0.66,0.09-1.27,0.19-1.93,0.28c-1.46-1.79-3.2-1.08-5.6-0.94C170.29,543.02,171.23,543.49,172.17,543.92z"/>
			<path class="st0" d="M337.56,399.74c8.66,0.05,15.66,2.59,22.16,7.15c2.49,1.74,1.98,3.43,0.52,5.03
				c-10.72,11.81-27.19,17.55-42.29,6.35c-4.56-3.39-4.56-7.71-0.14-11.34C323.87,401.91,330.83,399.6,337.56,399.74z"/>
			<path class="st0" d="M232.38,399.84c8.23-0.56,14.86,2.63,20.93,7.53c3.43,2.78,3.53,5.93,0.38,9.22
				c-8.75,9.03-23.19,10.68-36.46,1.51c-3.43-2.4-8.14-5.32-7.9-9.22c0.24-3.81,5.88-4.75,9.27-6.4
				C223.02,400.36,227.81,399.23,232.38,399.84z"/>
			<path class="st0" d="M419.31,582.49c19.29-0.71,38.48,1.46,57.76,1.08c5.32-0.09,9.6,3.1,11.34,9.5c1.98,7.1,3.9,14.25,8.8,19.99
				c2.02,2.35,0.56,3.1-1.88,3.29c-8.75,0.61-11.34-1.03-15.81-15.1c-2.82-8.84-2.96-9.45-11.29-9.36
				c-12.56,0.19-25.12-0.89-37.63-1.41c-8.33-0.33-16.84,0.19-25.12-2.02c2.82-3.72,6.4-1.69,9.69-1.36
				c4.14,0.38,7.9-0.24,12.04-2.4C424.39,582.21,421.43,584.56,419.31,582.49z"/>
			<path class="st0" d="M401.29,374.39c-3.57,0.19-8.04-0.09-10.02-3.86c-2.07-3.95,0.85-8.14,2.82-11.57
				c5.32-9.27,13.59-13.41,23.43-14.21c3.43-0.28,6.87-0.09,10.3-0.09c2.92,0,4.09,1.13,3.29,4.61
				C427.87,362.82,414.46,374.39,401.29,374.39z"/>
			<path class="st0" d="M374.01,328.48c-1.55-7.81,3.15-14.35,7.06-21.17c1.6-2.82,3.2-3.25,5.6-0.56
				c9.78,10.72,12.7,26.2,6.91,38.34c-0.28,0.61-0.56,1.27-0.94,1.83c-4.61,7.95-7.67,8.18-13.26,0.94
				C374.81,341.89,374.01,339.2,374.01,328.48z"/>
			<path class="st0" d="M148.32,344.71c9.83-0.05,18.77,2.4,25.68,10.72c2.26,2.68,3.67,5.79,4.8,8.98
				c1.93,5.36-1.27,9.27-7.57,9.97c-12.94,1.51-29.63-12.42-31.42-26.2c-0.28-2.21,0.61-3.39,2.59-3.48
				C144.37,344.66,146.34,344.71,148.32,344.71z"/>
			<path class="st0" d="M495.14,384.22c-6.3,7.62-14.02,12.51-23,13.26c-8.04,0.66-15.85-1.79-22.34-7.67
				c-2.49-2.26-2.16-4.37-0.47-6.77c3.29-4.7,8-7.29,13.03-8.33C474.44,372.23,485.35,375.8,495.14,384.22z"/>
			<path class="st0" d="M174.14,331.44c-0.38-10.58,4.56-18.3,9.83-25.92c1.27-1.83,2.35-1.13,3.62,0.05
				c11.67,10.91,11.81,34.9,0.33,46.05c-2.16,2.12-3.9,2.12-5.88,0C176.82,345.88,173.77,339.2,174.14,331.44z"/>
			<path class="st0" d="M101.56,397.77c-9.45-0.71-17.03-4.47-23.47-10.91c-1.83-1.83-1.98-3.57,0.38-5.03
				c9.88-6.07,20.23-9.69,31.75-6.44c5.08,1.41,8.75,4.94,11.95,9.17c2.12,2.78-0.09,4.28-1.69,5.55
				C114.69,394.76,107.96,396.83,101.56,397.77z"/>
			<path class="st0" d="M161.07,456.05c-6.44,0.75-12.14-2.4-17.83-5.6c-1.6-0.89-2.82-2.02-0.8-4.28
				c9.31-10.44,19.9-16.28,33.73-12.47c3.25,0.89,6.02,2.59,8.42,4.7c3.2,2.78,1.18,5.74-1.03,7.95
				C178.42,451.49,171.27,456.8,161.07,456.05z"/>
			<path class="st0" d="M466.54,342.54c-0.71,19.43-9.31,28.27-25.54,32.79c-2.49,0.71-3.9-0.47-4.05-3.62
				c-0.56-14.11,9.27-30.53,21.4-35.33C465.36,333.56,466.54,334.45,466.54,342.54z"/>
			<path class="st0" d="M409.06,456.14c-10.11,0.14-16.93-4.37-22.91-10.91c-2.92-3.15-2.16-5.55,0.89-7.95
				c8.75-6.87,24.55-6.02,33.82,2.02c2.02,1.74,3.9,3.67,6.02,5.32c3.25,2.59,2.21,4.42-0.71,6.07
				C420.39,453.98,414.51,456.76,409.06,456.14z"/>
			<path class="st0" d="M104.24,342.5c0.05-8.42,0.99-8.61,8.51-5.46c14.68,6.26,19.38,19.14,21.07,34.39
				c0.28,2.78,0.24,4.14-3.62,3.48c-5.97-0.99-11.1-3.06-15.71-7.06C106.92,361.41,104.34,352.52,104.24,342.5z"/>
			<path class="st0" d="M362.16,612.92c-12.42,0.61-24.84,1.22-37.3,1.83c-0.19,0-0.42-0.47-1.03-1.22
				c6.73-3.1,13.69-4.47,20.56-5.64c18.58-3.25,37.35-2.92,56.02-1.88c14.63,0.8,29.4,1.13,43.93,3.81c2.4,0.47,4.89,0.24,7.34,0.33
				c-4,1.83-8.23,0.42-12.32,0.85c-1.6,0.19-3.72-0.89-4.37,1.88c-23.61,0-47.23,0-70.84,0
				C363.47,611.94,362.82,612.03,362.16,612.92z"/>
			<path class="st0" d="M180.26,233.37c9.17-0.71,15.95,3.57,22.06,9.69c2.59,2.59,2.92,4.8-0.33,7.53
				c-13.22,11.05-31.23,3.25-39-9.64c-1.27-2.16,0.14-2.68,1.51-3.43C169.58,234.59,174.85,232.57,180.26,233.37z"/>
			<path class="st0" d="M391.18,233.23c4.52-0.24,9.83,1.41,14.91,4.19c2.02,1.08,2.96,2.16,1.36,4.28
				c-8.61,11.62-21.59,18.39-35.33,11.29c-7.43-3.81-7.48-6.3-1.13-11.99C376.6,236.05,382.67,233.13,391.18,233.23z"/>
			<path class="st0" d="M419.31,582.49c2.12,2.07,5.08-0.24,7.9,2.21c-4.09,2.16-7.9,2.78-12.04,2.4c-3.29-0.33-6.87-2.35-9.69,1.36
				c-0.66,0-1.32,0-1.98,0c-2.3-3.06-4.61-3.1-6.87,0.05c-2.54-1.41-5.32-0.52-7.9-1.03c-6.16-1.83-12.42-0.71-18.63-0.52
				c-0.33,0-0.66,1.03-0.99,1.6c-1.32,0-2.63,0-3.95,0c-0.8-0.99-1.41-0.85-1.88,0.28c-9.64,2.45-19.33,4.56-28.6,8.33
				c-2.54,1.03-5.03,2.16-7.62,3.06c-0.89,0.33-2.02,2.02-2.78,0.05c-0.61-1.51,0.94-2.16,1.74-2.68c5.6-3.29,11.1-6.73,17.08-9.27
				c9.03-3.81,18.16-6.91,27.94-7.1c8.94,0,17.87,0,26.77,0c1.6,0.09,3.25,0.14,4.85,0.24c0.33,0.52,0.61,0.52,0.94,0
				c0.66,0,1.36,0,2.02-0.05c3.9,0.56,7.71,3.2,11.81,0.85C417.99,582.3,418.65,582.4,419.31,582.49z"/>
			<path class="st0" d="M189.95,612.6c-7.57,0.05-15.1,0.09-22.67,0.14c-1.32-1.13-2.59-1.13-3.86,0c-7.24,0-14.49,0.05-21.68,0.05
				c-0.8-1.03-1.88-0.8-2.92-0.8c-3.76,0-7.53-0.05-11.29,0c-2.02,0.05-3.67-0.19-3.48-3.01c12.65-0.94,25.35-1.55,38.01-2.54
				c16.37-1.32,32.69-0.28,49.01-0.8c1.18-0.05,2.68-0.61,3.57,0.99c-0.66,3.9-3.48,4.23-6.3,4.28c-4.75,0.09-9.45-0.05-14.21,0.05
				C192.58,611,190.65,610.2,189.95,612.6z"/>
			<path class="st0" d="M320.9,287.13c-0.14,10.3-6.4,19.8-15.48,23.52c-4.19,1.69-6.54,0.19-5.97-5.36
				c0.56-5.46,0.19-11.38,3.81-16.28c3.01-4.09,6.77-7.06,11.2-8.8C318.74,278.57,321,281.11,320.9,287.13z"/>
			<path class="st0" d="M200.81,414.51c0.09,2.87-0.94,5.97,2.12,8c0.47,0.33,0.89,1.83,0.61,2.3c-2.96,5.17,4.7,10.21,0.14,15.33
				c-8.23-10.87-15.15-22.39-15.76-37.02c-0.28-6.77-0.05-13.55,1.18-20.23c1.51,0,3.06,0,4.56,0
				C193.48,394.1,196.82,404.4,200.81,414.51z"/>
			<path class="st0" d="M249.97,287.51c0-8.47,1.6-9.55,8.8-5.41c10.25,5.93,11.62,14.86,10.82,25.21
				c-0.28,3.76-2.92,3.86-5.79,3.01C256.27,308.21,248.84,296.96,249.97,287.51z"/>
			<path class="st0" d="M415.17,391.37c-2.3,8.18-6.07,15.15-13.36,19.43c-3.67,2.16-8.14,3.43-10.96,0.8
				c-3.34-3.15-0.14-7.43,1.51-10.91c3.2-6.68,7.95-11.29,15.19-12.18C410.04,389.49,412.63,390.43,415.17,391.37z"/>
			<path class="st0" d="M176.26,412.59c-7.67,0.42-11.76-4.99-15.76-10.63c-0.66-0.94-1.13-2.12-1.65-3.2
				c-1.46-3.1-4.19-7.06-1.98-9.6c2.3-2.63,6.63-1.22,10.07,0.09c6.87,2.68,13.83,12.51,14.25,20.13
				C181.43,414.23,178.14,412.12,176.26,412.59z"/>
			<path class="st0" d="M277.63,285.2c-0.94-4.61,0.61-8.8,3.81-12.51c2.12-2.45,3.9-3.15,6.35-0.28
				c5.93,6.82,6.07,21.12,0.14,27.89c-1.93,2.21-3.53,2.63-5.69,0.24C278.48,296.31,277.06,291.37,277.63,285.2z"/>
			<path class="st0" d="M278.66,333.7c-0.66-3.86,0.05-7.43,2.02-10.54c2.49-3.9,6.21-3.81,8.61,0.09
				c4.66,7.67,3.76,19.1-1.74,25.07c-1.65,1.79-2.63,1.88-4.33,0.05C279.46,344.14,277.68,339.39,278.66,333.7z"/>
			<path class="st0" d="M189.95,612.6c0.71-2.45,2.63-1.6,4.14-1.65c4.75-0.09,9.45,0.05,14.21-0.05c2.82-0.05,5.69-0.33,6.3-4.28
				c11.57,0.14,22.67,2.73,33.59,7.15C228.71,612.69,209.33,613.35,189.95,612.6z"/>
			<path class="st0" d="M216.52,590.53c2.49-2.02,5.69,0.28,8.56-1.74c-1.51-2.16-5.64-0.33-5.64-4.23
				c10.91,3.01,20.93,7.95,29.45,16.13C238.21,596.79,227.34,593.73,216.52,590.53z"/>
			<path class="st0" d="M335.49,569.41c0.09,1.83,0.24,3.67,2.16,4.47c-7.39,5.6-15.01,10.87-22.3,16.7
				C320.1,581.27,327.11,574.59,335.49,569.41z"/>
			<path class="st0" d="M401.58,623.6c-0.38,0.33-0.8,0.94-1.13,0.89c-8.37-0.99-15.85,3.53-23.94,4.52
				c-4.89,0.61-7.34-2.68-10.4-5.41C377.92,623.08,389.77,623.13,401.58,623.6z"/>
			<path class="st0" d="M124,609.02c-0.19,2.82,1.46,3.06,3.48,3.01c3.76-0.05,7.53,0,11.29,0c0,0.28,0,0.56,0,0.85
				c-13.31,0.61-26.62-0.42-39.98,0.28C107.02,609.96,115.53,609.96,124,609.02z"/>
			<path class="st0" d="M236.14,574.96c1.08-1.36,2.49-2.49,2.96-4.33c5.32,3.57,9.45,8.56,13.78,13.26
				c0.71,0.75,2.82,1.41,1.08,3.15c-1.18,1.22-1.98-0.09-2.92-0.8C246.16,582.49,241.13,578.73,236.14,574.96z"/>
			<path class="st0" d="M509.86,638.33c3.2-1.83,6.63-0.61,9.97-0.85c1.79-0.14,3.39-0.24,4.89-1.69c3.67-3.57,3.57-5.13-0.14-8.61
				c-1.27-1.18-3.72-0.8-3.9-3.34c7.67-0.42,10.87,2.35,9.88,8.66c-0.47,3.1-3.06,4.33-4.94,6.16
				C520.35,638.56,515.13,638.47,509.86,638.33z"/>
			<path class="st0" d="M435.02,612.83c0.66-2.78,2.78-1.69,4.37-1.88c4.09-0.47,8.28,0.94,12.32-0.85c4,1.32,8.37,0.33,12.94,2.73
				C454.35,612.83,444.66,612.83,435.02,612.83z"/>
			<path class="st0" d="M300.3,601.45c-4.8,0.28-4.94-4.05-4.47-6.82c0.66-3.9,3.9-2.35,6.4-1.69
				C301.62,595.76,300.96,598.62,300.3,601.45z"/>
			<path class="st0" d="M421.24,623.6c-2.35,4.7-8.75,4.7-11.81,0C413.38,623.13,417.33,623.13,421.24,623.6z"/>
			<path class="st0" d="M183.08,538.89c0.24-2.16-0.89-2.96-2.63-3.72c-2.16-0.99-4.61-1.93-5.22-4.89
				c2.92,0.14,5.41,1.51,7.81,3.25C185.57,535.31,185.86,537,183.08,538.89z"/>
			<path class="st0" d="M193.66,382.9c-1.51,0-3.06,0-4.56,0c1.08-3.15,2.16-6.35,3.62-10.44
				C194.51,376.51,193.71,379.75,193.66,382.9z"/>
			<path class="st0" d="M397.72,581.17c-8.94,0-17.87,0-26.77,0c6.35-2.3,12.89-0.75,19.29-0.99
				C392.73,580.14,395.46,579.15,397.72,581.17z"/>
			<path class="st0" d="M369.07,588.46c0.33-0.56,0.66-1.6,0.99-1.6c6.21-0.19,12.47-1.32,18.63,0.52
				C382.2,588.09,375.56,586.82,369.07,588.46z"/>
			<path class="st0" d="M417.33,582.21c-4.09,2.35-7.9-0.28-11.81-0.85C409.48,581.46,413.52,580.28,417.33,582.21z"/>
			<path class="st0" d="M229.41,564.19c-3.01-0.56-6.3-0.66-7.9-4.28C224.62,560.33,227.3,561.6,229.41,564.19z"/>
			<path class="st0" d="M396.64,588.46c2.3-3.1,4.56-3.06,6.87-0.05C401.25,588.46,398.94,588.46,396.64,588.46z"/>
			<path class="st0" d="M176.12,542.88c0.94-4.09,4.28-3.43,6.96-4C181.34,541.28,178.85,542.32,176.12,542.88z"/>
			<path class="st0" d="M415.17,391.37c-2.54-0.94-5.08-1.93-7.67-2.87c1.88-0.14,3.76-0.24,5.6-0.38
				C415.59,387.94,415.55,389.54,415.17,391.37z"/>
			<path class="st0" d="M339.53,566.36c0.33,3.57-1.88,3.29-4.05,3.1C336.43,567.77,337.56,566.45,339.53,566.36z"/>
			<path class="st0" d="M237.27,569.51c-2.12,0.09-4.28,0.33-4.05-3.15C234.68,567.25,236.47,567.67,237.27,569.51z"/>
			<path class="st0" d="M172.17,543.92c-0.94-0.47-1.88-0.94-3.53-1.74c2.4-0.19,4.09-0.85,5.6,0.94
				C173.81,544.29,172.97,544.06,172.17,543.92z"/>
			<path class="st0" d="M514.75,623.84c-0.99,3.06-1.98,1.46-2.92,0C512.82,623.84,513.81,623.84,514.75,623.84z"/>
			<path class="st0" d="M163.37,612.78c1.27-1.13,2.59-1.13,3.86,0C165.96,612.74,164.69,612.78,163.37,612.78z"/>
			<path class="st0" d="M301.01,615.18c-0.61-0.09-1.36-0.19-1.36-1.08s0.75-0.94,1.36-1.08
				C301.01,613.77,301.01,614.48,301.01,615.18z"/>
			<path class="st0" d="M448.8,623.84c-1.27,1.27-2.59,1.27-3.86,0C446.22,623.84,447.49,623.84,448.8,623.84z"/>
			<path class="st0" d="M138.72,612.88c0-0.28,0-0.56,0-0.85c1.03,0.05,2.12-0.24,2.92,0.8
				C140.7,612.83,139.71,612.83,138.72,612.88z"/>
			<path class="st0" d="M363.19,588.79c0.47-1.18,1.13-1.27,1.88-0.28C364.46,588.61,363.85,588.7,363.19,588.79z"/>
			<path class="st0" d="M218.5,584.42c-0.8,0.05-1.51-0.14-1.98-0.89C217.42,583.24,218.12,583.38,218.5,584.42z"/>
			<path class="st0" d="M362.16,612.92c0.66-0.89,1.32-0.94,2.02-0.09C363.52,612.83,362.86,612.88,362.16,612.92z"/>
			<path class="st0" d="M341.51,565.46c-0.47,0.8-1.22,0.94-1.98,0.89C339.81,565.09,340.66,565.27,341.51,565.46z"/>
			<path class="st0" d="M301.29,461.46c-0.71,1.27-1.32,1.46-1.88-0.09C300.02,461.36,300.68,461.41,301.29,461.46z"/>
			<path class="st0" d="M403.5,581.41c-0.33,0.52-0.61,0.52-0.94,0C402.89,581.27,403.22,581.27,403.5,581.41z"/>
			<path class="st0" d="M233.22,566.4c-0.33-0.28-0.66-0.52-0.99-0.8C232.94,565.37,233.08,565.89,233.22,566.4z"/>
			<path class="st0" d="M221.51,559.96c-0.33-0.28-0.71-0.56-1.03-0.85C221.18,558.88,221.37,559.39,221.51,559.96z"/>
			<path class="st0" d="M175.22,530.28c-0.33-0.28-0.71-0.56-1.03-0.85C174.85,529.29,175.08,529.71,175.22,530.28z"/>
			<path class="st0" d="M338.54,638.33c0.24-1.51,1.18-1.98,2.45-1.93c11.85,0.56,23.61-0.56,35.42-2.07c4.09-0.52,8,0.89,11.9,2.07
				c0.94,0.28,1.27,0.99,1.41,1.93C372.69,638.33,355.62,638.33,338.54,638.33z"/>
			<path class="st0" d="M404.54,638.33c0.24-1.51,1.18-1.93,2.49-1.93c6.54,0,13.12,0,19.66,0c1.27,0,2.26,0.42,2.49,1.93
				C420.91,638.33,412.72,638.33,404.54,638.33z"/>
			<path class="st0" d="M438.97,638.33c0.09-0.66,0.19-1.51,0.99-1.51c0.8,0,0.89,0.8,0.99,1.51
				C440.29,638.33,439.63,638.33,438.97,638.33z"/>
		</g>
	</g>
</g>
<g>
	<g>
	</g>
</g>
<g>
	<g>
		<path class="st1" d="M335.1,474.54c-1.94-0.41-3.77-1.01-5.48-1.8s-3.24-1.74-4.58-2.86l3.72-6.62c1.64,1.35,3.54,2.39,5.68,3.12
			s4.36,1.1,6.62,1.1c2.62,0,4.65-0.44,6.09-1.33s2.17-2.14,2.17-3.76v-0.03c0-1.13-0.32-2.03-0.97-2.7s-1.48-1.15-2.52-1.46
			s-2.36-0.6-3.98-0.85c-0.06-0.02-0.11-0.03-0.16-0.03s-0.1-0.01-0.16-0.03l-0.64-0.09c-2.85-0.45-5.21-1.01-7.09-1.68
			s-3.47-1.86-4.78-3.54s-1.96-4.09-1.96-7.19v-0.03c0-2.75,0.62-5.11,1.85-7.06s3.02-3.44,5.36-4.47s5.18-1.54,8.5-1.54
			c1.52,0,3.08,0.18,4.67,0.53s3.15,0.86,4.67,1.52s2.97,1.46,4.34,2.4l-3.4,6.8c-1.64-1.13-3.35-2.01-5.14-2.64
			s-3.5-0.94-5.14-0.94c-2.46,0-4.37,0.41-5.71,1.22c-1.35,0.81-2.02,1.95-2.02,3.41v0.03c0,1.23,0.35,2.2,1.05,2.92
			s1.57,1.24,2.61,1.57s2.49,0.68,4.37,1.05c0.08,0.02,0.16,0.03,0.23,0.04s0.16,0.02,0.23,0.04c0.12,0.02,0.23,0.04,0.34,0.07
			s0.22,0.05,0.34,0.07c2.7,0.53,4.95,1.17,6.75,1.92s3.32,1.96,4.53,3.63s1.82,3.95,1.82,6.84v0.06c0,2.71-0.63,5.04-1.9,6.97
			s-3.12,3.41-5.55,4.42s-5.36,1.52-8.77,1.52C339.03,475.15,337.04,474.95,335.1,474.54z"/>
		<path class="st1" d="M371.13,473.2c-2.35-1.3-4.17-3.13-5.46-5.51s-1.93-5.12-1.93-8.25v-12.07c0-3.12,0.64-5.87,1.93-8.25
			s3.11-4.21,5.46-5.51c2.35-1.3,5.07-1.95,8.16-1.95s5.81,0.65,8.16,1.95c2.35,1.3,4.17,3.13,5.46,5.51s1.93,5.12,1.93,8.25v12.07
			c0,3.12-0.64,5.87-1.93,8.25s-3.11,4.21-5.46,5.51s-5.07,1.95-8.16,1.95S373.49,474.5,371.13,473.2z M383.1,466.2
			c1.09-0.62,1.94-1.49,2.53-2.62s0.89-2.44,0.89-3.93v-12.48c0-1.48-0.3-2.79-0.89-3.93s-1.44-2.01-2.53-2.62s-2.36-0.92-3.81-0.92
			s-2.71,0.31-3.81,0.92s-1.94,1.49-2.53,2.62s-0.89,2.44-0.89,3.93v12.48c0,1.48,0.3,2.79,0.89,3.93s1.44,2.01,2.53,2.62
			s2.36,0.92,3.81,0.92S382.01,466.82,383.1,466.2z"/>
		<path class="st1" d="M409.87,473.2c-2.35-1.3-4.17-3.13-5.46-5.51s-1.93-5.12-1.93-8.25v-12.07c0-3.12,0.64-5.87,1.93-8.25
			s3.11-4.21,5.46-5.51c2.35-1.3,5.07-1.95,8.16-1.95s5.81,0.65,8.16,1.95c2.35,1.3,4.17,3.13,5.46,5.51s1.93,5.12,1.93,8.25v12.07
			c0,3.12-0.64,5.87-1.93,8.25s-3.11,4.21-5.46,5.51s-5.07,1.95-8.16,1.95S412.22,474.5,409.87,473.2z M421.83,466.2
			c1.09-0.62,1.94-1.49,2.53-2.62s0.89-2.44,0.89-3.93v-12.48c0-1.48-0.3-2.79-0.89-3.93s-1.44-2.01-2.53-2.62s-2.36-0.92-3.81-0.92
			s-2.71,0.31-3.81,0.92s-1.94,1.49-2.53,2.62s-0.89,2.44-0.89,3.93v12.48c0,1.48,0.3,2.79,0.89,3.93s1.44,2.01,2.53,2.62
			s2.36,0.92,3.81,0.92S420.74,466.82,421.83,466.2z"/>
		<path class="st1" d="M442.08,432.11h9.81l15.85,32.64l-0.7,0.76v-33.4h7.68v42.57h-9.87l-15.79-32.14l0.7-0.76v32.9h-7.68V432.11z
			"/>
	</g>
</g>
<g>
	<g>
		<path class="st1" d="M71.03,396.17c-2.3-1.24-4.06-3.05-5.27-5.42c-1.21-2.37-1.82-5.24-1.82-8.6v-11.69c0-3.36,0.6-6.23,1.82-8.6
			c1.21-2.37,2.97-4.18,5.27-5.43c2.3-1.25,5.08-1.88,8.32-1.88c2.68,0,5.07,0.58,7.18,1.73c2.11,1.15,3.85,2.83,5.23,5.02
			s2.33,4.85,2.86,7.95h-8.32c-0.31-1.41-0.8-2.61-1.45-3.6c-0.65-1-1.45-1.76-2.37-2.29c-0.93-0.53-1.97-0.79-3.12-0.79
			c-1.5,0-2.78,0.31-3.84,0.92s-1.86,1.51-2.42,2.7c-0.56,1.18-0.83,2.6-0.83,4.26v11.69c0,1.66,0.28,3.08,0.83,4.25
			s1.36,2.07,2.42,2.68s2.33,0.92,3.84,0.92c1.17,0,2.23-0.26,3.16-0.78c0.94-0.52,1.73-1.27,2.37-2.27s1.11-2.21,1.41-3.63h8.32
			c-0.55,3.11-1.51,5.76-2.89,7.95s-3.12,3.87-5.21,5.02c-2.1,1.15-4.49,1.73-7.16,1.73C76.11,398.03,73.33,397.41,71.03,396.17z"/>
		<path class="st1" d="M108.45,396.08c-2.35-1.3-4.17-3.13-5.46-5.51s-1.93-5.12-1.93-8.25v-12.07c0-3.12,0.64-5.87,1.93-8.25
			s3.11-4.21,5.46-5.51c2.35-1.3,5.07-1.95,8.16-1.95c3.09,0,5.81,0.65,8.16,1.95c2.35,1.3,4.17,3.13,5.46,5.51s1.93,5.12,1.93,8.25
			v12.07c0,3.12-0.64,5.87-1.93,8.25s-3.11,4.21-5.46,5.51c-2.35,1.3-5.07,1.95-8.16,1.95
			C113.53,398.03,110.81,397.38,108.45,396.08z M120.42,389.08c1.09-0.62,1.94-1.49,2.53-2.62c0.6-1.13,0.89-2.44,0.89-3.93v-12.48
			c0-1.48-0.3-2.79-0.89-3.93c-0.6-1.13-1.44-2.01-2.53-2.62c-1.09-0.62-2.36-0.92-3.81-0.92c-1.45,0-2.71,0.31-3.81,0.92
			c-1.09,0.62-1.94,1.49-2.53,2.62c-0.6,1.13-0.89,2.44-0.89,3.93v12.48c0,1.48,0.3,2.79,0.89,3.93c0.6,1.13,1.44,2.01,2.53,2.62
			c1.09,0.62,2.36,0.92,3.81,0.92C118.06,390,119.33,389.69,120.42,389.08z"/>
		<path class="st1" d="M167.47,354.99h10.58v42.6h-7.29v-33.08l0.29,1.88l-8.14,26.46h-7.09l-8.14-25.87l0.29-2.46v33.08h-7.29
			v-42.6h10.58l8.12,28.71L167.47,354.99z"/>
		<path class="st1" d="M195.16,397.59h-8.32v-42.6h8.32V397.59z"/>
		<path class="st1" d="M203.95,354.99h9.81l15.85,32.64l-0.7,0.76v-33.4h7.68v42.57h-9.87l-15.79-32.14l0.7-0.76v32.9h-7.68V354.99z
			"/>
		<path class="st1" d="M276.25,373.77v8.32c0,3.16-0.64,5.95-1.92,8.36c-1.28,2.41-3.09,4.28-5.43,5.6s-5.06,1.98-8.14,1.98
			c-3.11,0-5.84-0.62-8.22-1.86c-2.37-1.24-4.21-2.99-5.51-5.26c-1.3-2.27-1.95-4.89-1.95-7.88v-12.57c0-3.16,0.64-5.95,1.92-8.35
			c1.28-2.4,3.09-4.26,5.43-5.58s5.06-1.98,8.14-1.98c2.54,0,4.88,0.52,7.03,1.57c2.15,1.04,3.94,2.52,5.38,4.44
			c1.44,1.91,2.41,4.13,2.92,6.65h-8.67c-0.29-0.9-0.78-1.67-1.45-2.33c-0.67-0.65-1.46-1.15-2.37-1.49
			c-0.91-0.34-1.85-0.51-2.83-0.51c-1.43,0-2.68,0.31-3.76,0.94c-1.08,0.63-1.92,1.51-2.52,2.67c-0.6,1.15-0.89,2.48-0.89,3.98
			v12.57c0,1.33,0.3,2.5,0.91,3.52c0.6,1.02,1.46,1.8,2.58,2.34c1.11,0.55,2.4,0.82,3.87,0.82c1.45,0,2.71-0.3,3.79-0.89
			c1.08-0.6,1.92-1.46,2.5-2.59c0.59-1.13,0.88-2.47,0.88-4.01v-0.7h-6.45v-7.73H276.25z"/>
	</g>
</g>
</svg>
