<?xml version="1.0" encoding="utf-8"?>
<!-- Generator: Adobe Illustrator 27.2.0, SVG Export Plug-In . SVG Version: 6.00 Build 0)  -->
<svg version="1.1" id="_x32_" xmlns="http://www.w3.org/2000/svg" xmlns:xlink="http://www.w3.org/1999/xlink" x="0px" y="0px"
	 viewBox="0 0 512 512" style="enable-background:new 0 0 512 512;" xml:space="preserve">
<style type="text/css">
	.st0{fill:#F2F2F3;}
</style>
<g>
	<path class="st0" d="M256,274.9c69.5,0,125.9-56.4,125.9-125.9C381.9,79.4,325.5,23,256,23c-69.6,0-125.9,56.4-125.9,125.9
		C130.1,218.5,186.4,274.9,256,274.9z"/>
	<path class="st0" d="M425.9,393.1c-5.9-35.5-36-84.5-57.6-107.5c-5.8-6.2-15.9-3.6-19.5-1.4c-27,16.7-58.8,26.4-92.8,26.4
		c-34,0-65.8-9.7-92.8-26.4c-3.6-2.2-13.7-4.8-19.5,1.4c-21.6,23-51.6,72-57.6,107.5C71.6,480.4,164.9,512,256,512
		S440.4,480.4,425.9,393.1z"/>
</g>
</svg>
