<svg width="512" height="478" viewBox="0 0 512 478" fill="none" xmlns="http://www.w3.org/2000/svg">
<path d="M1.91397 276.729V276.713L1.89697 276.656L1.91397 276.729Z" fill="#84A98C"/>
<path d="M10.0269 296.059L9.90693 295.914C9.89893 295.906 9.89893 295.906 9.89893 295.906L10.0269 296.059Z" fill="#84A98C"/>
<path d="M10.0269 206.737L9.90693 206.592C9.89893 206.592 9.89893 206.592 9.89893 206.592L10.0269 206.737Z" fill="#84A98C"/>
<path d="M1.91395 187.421C1.91395 187.421 1.91395 187.397 1.90595 187.381L1.89795 187.357L1.91395 187.421Z" fill="#84A98C"/>
<path d="M512 187.687C512.008 185.412 511.565 183.208 510.85 181.118C511.55 179.188 511.92 177.242 511.928 175.36C511.944 172.4 511.123 169.538 509.878 167.238L509.838 167.166C509.46 166.475 508.945 165.743 508.374 165.011V109.743C510.642 106.486 511.993 102.57 512.001 98.3651C512.001 90.2271 507.096 82.9171 499.593 79.8381L314.233 2.39208H313.694C309.802 1.02508 305.766 0.205078 301.672 0.205078C297.676 0.205078 293.671 0.985079 289.82 2.31108H289.338L17.667 111.785L16.991 112.163L17.007 112.187C13.541 114.012 10.976 116.545 9.207 118.997C6.112 123.299 4.528 127.835 3.377 131.952L3.369 132.008C1.641 138.401 0.917 144.89 0.475 150.383L0.467 150.431C0.057 155.947 0.033 160.611 0.001 162.526V162.574V163.596C0.009 170.294 0.379 179.002 1.907 187.382L1.931 187.471C2.736 191.684 3.869 195.962 5.8 200.128L5.832 200.192L5.839 200.208C6.821 202.259 8.099 204.454 9.868 206.545L9.908 206.593C10.036 206.746 10.222 206.883 10.367 207.028C9.997 207.462 9.514 207.88 9.208 208.322C6.104 212.616 4.529 217.152 3.378 221.26L3.37 221.3V221.316C1.642 227.709 0.918 234.206 0.476 239.698L0.468 239.738C0.056 245.263 0.032 249.919 0 251.841V251.881V252.91C0.008 259.617 0.378 268.326 1.914 276.713L1.93 276.777C2.735 280.999 3.868 285.285 5.799 289.45L5.838 289.522C6.812 291.557 8.09 293.752 9.867 295.866L9.907 295.915C10.229 296.301 10.703 296.647 11.081 297.032C10.445 297.732 9.714 298.424 9.207 299.123C6.103 303.425 4.528 307.961 3.377 312.061L3.353 312.174L3.369 312.125C1.641 318.518 0.917 325.016 0.475 330.508L0.467 330.556C0.057 336.072 0.033 340.736 0.001 342.666V342.714V343.711C0.009 350.425 0.379 359.142 1.915 367.53L1.931 367.594C2.736 371.808 3.869 376.094 5.8 380.251L5.839 380.331C6.813 382.374 8.091 384.561 9.868 386.676L9.74 386.531L9.909 386.732C11.605 388.702 13.937 390.608 16.849 392.031L16.817 392.079L16.873 392.111L17.283 392.344L217.231 474.864L217.689 475.057C222.12 476.867 226.832 477.791 231.568 477.791C236.216 477.791 240.872 476.899 245.262 475.105L501.169 371.115V371.107C504.12 369.917 506.903 367.979 509.034 364.867L509.042 364.875C509.042 364.875 509.05 364.851 509.058 364.835C509.066 364.827 509.074 364.827 509.082 364.811H509.074C511.092 361.755 511.912 358.539 511.929 355.483C511.945 352.523 511.124 349.661 509.879 347.361L509.839 347.289V347.297C509.461 346.605 508.946 345.866 508.375 345.134V289.874C510.643 286.617 511.994 282.685 512.002 278.488C512.01 275.947 511.471 273.478 510.562 271.17C511.479 268.999 511.921 266.788 511.929 264.672C511.945 261.705 511.124 258.859 509.879 256.542L509.839 256.47C509.461 255.786 508.946 255.046 508.375 254.314V199.062C510.64 195.801 511.992 191.876 512 187.687ZM216.272 452.135L25.852 373.538L25.136 372.702C24.541 371.777 23.778 370.016 23.166 367.829C22.218 364.556 21.566 360.294 21.172 355.984C20.778 351.682 20.641 347.348 20.641 343.713V342.853C20.673 340.047 20.777 331.925 21.935 324.285C22.482 320.473 23.327 316.798 24.371 314.193L24.589 313.719L216.27 391.479V452.135H216.272ZM216.272 361.323L43.005 289.788L25.853 282.728L25.137 281.892C24.542 280.959 23.779 279.206 23.167 277.026C22.219 273.737 21.567 269.483 21.173 265.174C20.779 260.872 20.642 256.538 20.642 252.91V252.042C20.674 249.228 20.778 241.114 21.936 233.466C22.483 229.662 23.328 225.979 24.372 223.382L24.59 222.908L216.271 300.667V361.323H216.272ZM216.272 216.29V219.972V272.008L41.164 199.708L25.853 193.411L25.137 192.567C24.542 191.642 23.779 189.881 23.167 187.711C22.219 184.429 21.567 180.176 21.173 175.857C20.779 171.547 20.642 167.221 20.642 163.595V162.726C20.674 159.92 20.778 151.798 21.936 144.158C22.483 140.346 23.328 136.672 24.372 134.066L24.59 133.6L216.271 211.352V216.29H216.272ZM487.731 354.312L238.16 455.705L237.5 456.002C235.578 456.758 233.576 457.152 231.566 457.152C230.85 457.152 230.119 457.047 229.411 456.935V395.523C230.352 395.628 231.325 395.684 232.266 395.684C236.022 395.684 239.785 394.944 243.299 393.497L243.54 393.393L487.732 293.729V354.312H487.731ZM487.731 263.155V263.493L238.16 364.894L237.5 365.184C235.578 365.948 233.576 366.334 231.566 366.334C230.85 366.334 230.119 366.23 229.411 366.133V304.713C230.352 304.817 231.325 304.874 232.266 304.874C236.022 304.874 239.785 304.134 243.299 302.694L243.54 302.582L414.812 232.686L487.731 202.916V263.155ZM487.731 172.344V174.185L238.16 275.579L237.5 275.868C235.578 276.632 233.576 277.026 231.566 277.026C230.85 277.026 230.119 276.921 229.411 276.818V220.673V215.39C230.352 215.503 231.325 215.55 232.266 215.55C236.022 215.55 239.785 214.819 243.299 213.38L243.54 213.275L487.732 113.603V172.344H487.731Z" fill="#84A98C"/>
<path d="M1.91397 367.547V367.531L1.89697 367.482L1.91397 367.547Z" fill="#84A98C"/>
</svg>
