<svg width="50" height="54" viewBox="0 0 50 54" fill="none" xmlns="http://www.w3.org/2000/svg">
<path d="M24.8016 20.4977H29.7619V12.992H37.2024V7.98817H29.7619V0.482422H24.8016V7.98817H17.3611V12.992H24.8016V20.4977ZM14.881 43.015C12.1528 43.015 9.94544 45.2667 9.94544 48.0188C9.94544 50.7709 12.1528 53.0226 14.881 53.0226C17.6091 53.0226 19.8413 50.7709 19.8413 48.0188C19.8413 45.2667 17.6091 43.015 14.881 43.015ZM39.6825 43.015C36.9544 43.015 34.747 45.2667 34.747 48.0188C34.747 50.7709 36.9544 53.0226 39.6825 53.0226C42.4107 53.0226 44.6429 50.7709 44.6429 48.0188C44.6429 45.2667 42.4107 43.015 39.6825 43.015ZM15.3026 34.8838L15.377 34.5835L17.6091 30.5054H36.0863C37.9464 30.5054 39.5833 29.4796 40.4266 27.9284L50 10.39L45.6845 7.98817H45.6597L42.9315 12.992L36.0863 25.5016H18.6756L18.3532 24.8261L12.7976 12.992L10.4415 7.98817L8.11012 2.98434H0V7.98817H4.96032L13.8889 26.9777L10.5407 33.1074C10.1438 33.8079 9.92064 34.6336 9.92064 35.5092C9.92064 38.2613 12.1528 40.5131 14.881 40.5131H44.6429V35.5092H15.9226C15.6002 35.5092 15.3026 35.234 15.3026 34.8838Z" fill="#84A98C"/>
</svg>
