<svg width="36" height="52" viewBox="0 0 36 52" fill="none" xmlns="http://www.w3.org/2000/svg">
<path d="M32.8756 27.7823C30.7626 27.4223 28.698 28.5594 28.2654 30.3213C28.1198 30.916 27.8535 31.471 27.4864 31.9747C26.9359 32.7303 26.157 33.3662 25.2373 33.8064C24.315 34.2473 23.266 34.4971 22.1144 34.4979C21.3535 34.4979 20.6403 34.3877 19.9756 34.1878C18.9799 33.8872 18.0947 33.3774 17.4005 32.7216C16.708 32.0651 16.1936 31.322 15.8105 30.4831C15.3227 29.4141 15.3389 27.5586 15.7497 26.4628C16.0548 25.6476 16.9622 24.3963 18.1993 23.7001C18.8183 23.3512 19.4983 23.0769 20.2229 22.8881C20.9485 22.701 21.7179 22.5979 22.528 22.5979C23.6902 22.5987 24.7714 22.8073 25.7518 23.1823C26.7314 23.5566 27.6072 24.0998 28.3185 24.7675C29.6631 26.0268 31.9779 26.1393 33.4889 25.0189C35 23.8984 35.1359 21.9683 33.7912 20.7075C32.4134 19.4158 30.7196 18.3627 28.8063 17.6308C26.8939 16.8981 24.7571 16.4897 22.528 16.4905C21.6361 16.4905 20.7583 16.5579 19.9035 16.6832C20.8897 15.1696 22.0308 13.6216 23.3051 12.1022C25.1223 9.93428 27.2011 7.82343 29.4368 5.9448C30.8614 4.74825 30.8527 2.81345 29.4158 1.62554C27.98 0.437624 25.6616 0.445562 24.2372 1.64372C20.8184 4.51905 17.8134 7.77088 15.359 11.0555C14.5792 12.0998 13.8555 13.1472 13.1937 14.1891C13.4 13.2709 13.6424 12.3845 13.9192 11.5344C14.7847 8.88273 15.9514 6.5681 17.1534 4.61973C18.0168 3.2201 17.357 1.50174 15.6785 0.781779C13.9991 0.0609131 11.9384 0.61136 11.075 2.01089C9.68746 4.25819 8.33143 6.94471 7.32245 10.0373C6.8156 11.5915 6.39625 13.2495 6.10427 15.0028V7.0684C6.10427 5.66325 4.73775 4.52457 3.05165 4.52457C1.36664 4.52457 0 5.66325 0 7.0684V24.0672V51.9122H19.0668C19.0668 51.9122 19.0668 48.7911 19.0668 47.8411C19.0668 45.8056 20.3687 44.3108 22.1594 43.4973C23.7655 42.7661 27.8595 40.9431 31.5255 38.0083C31.551 37.9893 31.5739 37.9695 31.5988 37.9504C31.614 37.9385 31.6301 37.9266 31.6443 37.9139C32.0401 37.6111 32.4175 37.2914 32.7693 36.9537C34.3166 35.4645 35.4263 33.6407 35.9199 31.6273C36.3524 29.8646 34.9896 28.1438 32.8756 27.7823Z" fill="#84A98C"/>
</svg>
