<svg width="498" height="512" viewBox="0 0 498 512" fill="none" xmlns="http://www.w3.org/2000/svg">
<path d="M252.245 54.4512C204.12 54.4512 165.12 93.4512 165.12 141.576C165.12 189.685 204.12 228.701 252.245 228.701C300.37 228.701 339.37 189.685 339.37 141.576C339.37 93.4512 300.37 54.4512 252.245 54.4512ZM283.339 168.076C281.605 171.326 279.214 174.029 276.183 176.264C273.167 178.483 269.542 180.139 265.308 181.233C263.464 181.686 261.527 182.014 259.558 182.296V194.577H244.902V182.53C240.73 182.186 236.73 181.53 232.98 180.499C227.23 178.936 219.73 172.561 219.73 172.561C219.074 172.202 218.652 171.545 218.574 170.811C218.465 170.061 218.73 169.327 219.246 168.795L226.605 161.467C227.386 160.67 228.621 160.529 229.574 161.092C229.574 161.092 235.074 165.889 239.246 167.014C243.402 168.17 247.543 168.717 251.652 168.717C256.871 168.717 261.168 167.795 264.59 165.967C267.996 164.108 269.699 161.248 269.699 157.326C269.699 154.529 268.855 152.31 267.168 150.685C265.512 149.076 262.652 148.044 258.637 147.607L245.481 146.451C237.7 145.701 231.684 143.529 227.465 139.967C223.231 136.389 221.121 130.983 221.121 123.717C221.121 119.717 221.934 116.139 223.574 112.998C225.183 109.857 227.402 107.217 230.215 105.045C233.043 102.873 236.324 101.264 240.043 100.186C241.606 99.7172 243.246 99.4202 244.902 99.1552V88.5612H259.558V98.9522C262.98 99.2802 266.246 99.8272 269.292 100.671C274.433 102.077 279.839 106.28 279.839 106.28C280.511 106.639 280.98 107.296 281.089 108.061C281.198 108.811 280.948 109.561 280.433 110.092L273.527 117.123C272.793 117.857 271.668 118.061 270.73 117.545C270.73 117.545 266.636 114.654 263.121 113.732C259.606 112.81 255.887 112.341 251.996 112.341C246.902 112.341 243.137 113.341 240.699 115.279C238.261 117.232 237.043 119.779 237.043 122.904C237.043 125.732 237.902 127.888 239.652 129.404C241.386 130.92 244.293 131.92 248.418 132.342L259.934 133.311C268.512 134.061 274.981 136.327 279.356 140.124C283.762 143.921 285.95 149.452 285.95 156.702C285.948 161.029 285.073 164.811 283.339 168.076Z" fill="#84A98C"/>
<path d="M218.558 316.608C238.839 316.608 302.167 316.608 302.167 316.608C318.98 316.608 332.589 302.983 332.589 286.186C332.589 269.389 318.98 255.795 302.167 255.795C286.964 255.795 256.573 255.795 180.558 255.795C104.527 255.795 80.464 287.467 53.855 314.061L5.57399 356.233C2.44899 358.967 0.635986 362.905 0.635986 367.061V507.217C0.635986 509.092 1.72999 510.78 3.43299 511.561C5.13599 512.342 7.13599 512.077 8.55799 510.842L101.871 430.858C105.168 428.045 109.543 426.874 113.793 427.639L259.199 454.061C269.34 455.92 279.793 453.592 288.215 447.639C288.215 447.639 473.809 318.592 487.496 307.17C500.574 295.186 500.418 277.795 488.434 264.748C476.434 251.654 454.059 254.435 439.137 265.482C425.465 276.888 332.059 338.263 332.059 338.263H218.559L218.2 338.435C212.216 338.232 207.544 333.232 207.731 327.247C207.95 321.278 212.95 316.591 218.919 316.794L218.558 316.608Z" fill="#84A98C"/>
<path d="M355.698 -0.00195312C328.026 -0.00195312 303.885 14.795 290.526 36.842C333.245 52.514 363.87 93.4831 363.87 141.576C363.87 145.123 363.667 148.623 363.339 152.092C401.855 148.248 431.933 115.764 431.933 76.233C431.933 34.139 397.808 -0.00195312 355.698 -0.00195312Z" fill="#84A98C"/>
</svg>
