<svg width="57" height="58" viewBox="0 0 57 58" fill="none" xmlns="http://www.w3.org/2000/svg">
<path d="M55.7254 31.2218L50.1611 30.7745L40.3825 18.752C39.5057 17.3894 37.954 16.0347 36.0144 14.9341C35.8446 14.8398 35.673 14.7476 35.4992 14.6594L41.6736 5.89545C41.9847 5.4551 42.1485 4.94198 42.1485 4.41033C42.1485 3.53918 41.7081 2.72509 40.9665 2.23454L38.9965 0.926865C38.5459 0.624766 38.0166 0.464844 37.461 0.464844C36.5679 0.464844 35.7315 0.8925 35.2264 1.61058L27.1338 13.0977H18.4996C16.9389 13.1623 15.6377 13.4233 14.5225 13.8961C13.377 14.3797 12.3647 15.1302 11.5485 16.0915L5.64491 21.5319C4.55293 22.5109 3.77702 23.7038 3.33951 25.0809C3.00019 26.1424 2.89518 27.1626 2.81121 27.9826L2.78693 28.2142L1.27964 38.9597C1.11912 39.6346 1.03619 40.2742 1.03619 40.8607C1.03007 42.6716 1.79591 43.7997 2.2525 44.3098C2.82833 44.9593 3.40312 45.2458 3.52733 45.2977C3.73145 45.4164 3.94552 45.5065 4.16179 45.5674L2.17374 48.3376C2.11615 48.418 2.11106 48.5289 2.12725 48.6281L0.0100191 57.4842C-0.0264111 57.6411 0.038238 57.8049 0.175748 57.8961C0.244445 57.9423 0.325169 57.9648 0.404044 57.9648C0.483843 57.9648 0.563643 57.9423 0.63234 57.8971L8.34213 52.7893C8.45131 52.7756 8.55331 52.7167 8.61993 52.6225L13.8911 45.1418C14.2457 45.284 14.6175 45.383 15.0033 45.436C15.1912 45.7549 15.4215 46.0541 15.6903 46.3267C16.2439 46.8956 17.5036 47.8501 19.7392 47.8501C20.7474 47.8501 21.8929 47.6481 23.1476 47.2499C23.9274 47.8237 24.7527 48.3005 25.665 48.7066C27.7783 49.6463 30.1331 50.1113 32.3626 50.4722C34.0062 50.738 36.0669 50.8734 38.4853 50.8745C42.1584 50.8735 45.4981 50.5654 46.2356 50.4929L55.6506 51.4277C55.6648 51.4277 55.6769 51.4296 55.691 51.4296C55.7921 51.4296 55.887 51.3933 55.9619 51.3276C56.0468 51.254 56.0952 51.1481 56.0952 51.0372V31.6133C56.0951 31.4083 55.9354 31.2395 55.7254 31.2218ZM36.5821 2.51115C36.7882 2.21489 37.1215 2.05991 37.465 2.05789C37.6752 2.05789 37.8813 2.11673 38.0671 2.23937L38.1298 2.28261L40.0411 3.55098C40.3442 3.75402 40.5059 4.07679 40.5059 4.41022C40.5059 4.61237 40.4472 4.81238 40.3199 4.99488L39.3198 6.41531L35.5799 3.93057L36.5821 2.51115ZM3.37397 54.1509L3.17494 54.2843L2.55771 53.8743L2.61218 53.6466L3.64668 49.3187L7.15208 51.6475L3.37397 54.1509ZM4.73265 45.2545C4.76295 45.2554 4.79429 45.2673 4.82459 45.2673C4.84171 45.2673 4.85686 45.2624 4.87316 45.2614L4.79834 45.3664C4.79637 45.3615 4.79834 45.3555 4.79637 45.3507C4.7833 45.3133 4.75185 45.2879 4.73265 45.2545ZM8.82394 39.7562L6.04899 43.6251C5.77617 43.7075 5.53573 43.7919 5.34375 43.8526C5.11545 43.9252 4.94984 43.9587 4.82459 43.9587C4.69229 43.9557 4.58415 43.9371 4.38419 43.8174L4.33966 43.7909L4.30127 43.7741L4.23766 43.7408C4.09124 43.6604 3.72555 43.4269 3.40427 42.9806C3.08311 42.5323 2.79017 41.8771 2.78808 40.8607C2.78808 40.4115 2.84672 39.8906 2.99626 39.2912L3.00343 39.2578L4.52563 28.4221V28.4123C4.61966 27.5157 4.7035 26.5465 5.0116 25.5862C5.32166 24.6257 5.83897 23.6752 6.83901 22.7756L12.7961 17.2862L12.8222 17.2547C13.5263 16.419 14.2961 15.848 15.2215 15.4556C16.1449 15.0642 17.2369 14.8514 18.5653 14.7965L26.4246 14.7984L19.6421 24.4256L19.0441 23.6683L14.381 27.138L14.0678 27.7638C13.9749 27.7235 13.877 27.6804 13.7729 27.6324C13.2596 27.3989 12.6414 27.1056 12.1504 26.8722C11.6616 26.6386 11.3029 26.4641 11.3019 26.4641L10.6998 27.6334C10.7008 27.6334 11.3442 27.9473 12.0858 28.2974C12.2272 28.3651 12.3727 28.4319 12.5171 28.5005C12.494 28.5045 12.4718 28.5064 12.4485 28.5104C12.4444 28.5114 12.4404 28.5124 12.4374 28.5124V28.5143C11.3595 28.7271 10.4391 29.3736 9.87752 30.2741L9.85717 30.3054L9.2168 31.3422L9.1865 31.3903C8.8148 31.9975 8.63091 32.6754 8.63195 33.3464C8.63091 34.3057 9.00458 35.2593 9.72486 35.9901L9.92494 36.1912L8.82394 39.7562ZM18.9824 25.3626L16.1085 29.4405L15.4417 29.0982L15.4407 29.0991C15.3053 29.0099 15.164 28.9294 15.0185 28.8558L15.4538 27.9886L18.9824 25.3626ZM14.5184 43.5546L16.2862 41.0452L18.6643 42.8276C17.4166 43.5468 16.4379 43.7871 15.6983 43.786C15.2316 43.7841 14.8457 43.6928 14.5184 43.5546ZM19.7391 46.1502C18.2399 46.1423 17.446 45.636 16.955 45.1504C16.8964 45.0907 16.856 45.0318 16.8055 44.973C17.6945 44.7905 18.6895 44.3805 19.7997 43.6801L20.8412 44.4609C21.2321 44.9514 21.6382 45.3948 22.0564 45.8029C21.1434 46.05 20.3756 46.1502 19.7391 46.1502ZM54.3433 49.5874L46.2355 48.7821L46.1648 48.79C46.1627 48.791 45.9405 48.8145 45.5344 48.8508C44.3181 48.9577 41.4976 49.1745 38.4852 49.1735C36.479 49.1745 34.3879 49.0764 32.6493 48.7949C30.1703 48.3947 28.1308 47.9346 26.3943 47.1606C24.6567 46.3836 23.2081 45.3065 21.8475 43.5909L21.7939 43.5231L11.1323 35.5234L10.697 35.0849L10.698 35.0859C10.2231 34.6042 9.97976 33.9785 9.97872 33.3468C9.97872 32.9034 10.098 32.4609 10.3444 32.0617L10.3151 32.1078L11.0293 30.9532C11.4052 30.3528 12.0102 29.931 12.7153 29.7937L12.7335 29.7896L12.7265 29.7916C12.8972 29.7544 13.0679 29.7367 13.2396 29.7367C13.4658 29.7367 13.6911 29.7682 13.9143 29.8289L13.9265 29.8329C14.2094 29.9054 14.478 30.031 14.7347 30.2076L14.773 30.235L23.8284 34.8848L27.6631 34.6826L27.5904 33.378V33.377L24.1284 33.5585L22.3414 32.6413L34.1395 15.8944C34.4768 16.0524 34.8102 16.221 35.1355 16.4055C36.7679 17.3217 38.2144 18.5479 38.9256 19.6917L38.9458 19.7261L49.258 32.4079L54.3433 32.8179V49.5874Z" fill="#84A98C"/>
</svg>
