<svg width="50" height="53" viewBox="0 0 50 53" fill="none" xmlns="http://www.w3.org/2000/svg">
<path d="M24.8016 20.2997H29.7619V12.8592H37.2024V7.89885H29.7619V0.458374H24.8016V7.89885H17.3611V12.8592H24.8016V20.2997ZM14.881 42.6211C12.1528 42.6211 9.94544 44.8532 9.94544 47.5814C9.94544 50.3096 12.1528 52.5417 14.881 52.5417C17.6091 52.5417 19.8413 50.3096 19.8413 47.5814C19.8413 44.8532 17.6091 42.6211 14.881 42.6211ZM39.6825 42.6211C36.9544 42.6211 34.747 44.8532 34.747 47.5814C34.747 50.3096 36.9544 52.5417 39.6825 52.5417C42.4107 52.5417 44.6429 50.3096 44.6429 47.5814C44.6429 44.8532 42.4107 42.6211 39.6825 42.6211ZM15.3026 34.5606L15.377 34.2629L17.6091 30.2203H36.0863C37.9464 30.2203 39.5833 29.2034 40.4266 27.6657L50 10.2798L45.6845 7.89885H45.6597L42.9315 12.8592L36.0863 25.26H18.6756L18.3532 24.5903L12.7976 12.8592L10.4415 7.89885L8.11012 2.93853H0V7.89885H4.96032L13.8889 26.7233L10.5407 32.7997C10.1438 33.4941 9.92064 34.3126 9.92064 35.1806C9.92064 37.9088 12.1528 40.1409 14.881 40.1409H44.6429V35.1806H15.9226C15.6002 35.1806 15.3026 34.9078 15.3026 34.5606Z" fill="#84A98C"/>
</svg>
