<svg width="28" height="17" viewBox="0 0 28 17" fill="none" xmlns="http://www.w3.org/2000/svg">
<path d="M26.7354 1.19896C26.6593 1.05619 26.5251 0.936381 26.3542 0.868357C25.9996 0.726345 25.5946 0.606534 25.1426 0.500025C24.4641 0.342486 23.6788 0.218935 22.8141 0.132403C21.9493 0.0473373 21.0051 0 20.0148 0C18.6937 0 17.4555 0.0828405 16.3772 0.23077C15.8371 0.304758 15.339 0.394983 14.886 0.500025C14.5665 0.575481 14.2717 0.657564 13.9999 0.750014C13.7282 0.657564 13.4334 0.575433 13.113 0.500025C12.4353 0.342486 11.6501 0.218935 10.7853 0.132403C9.91971 0.0473373 8.97548 0 7.98514 0C6.66411 0 5.42593 0.0828405 4.34755 0.23077C3.80931 0.304711 3.30947 0.394936 2.85742 0.499978C2.40538 0.606487 2.00036 0.726297 1.64489 0.86831C1.47399 0.936381 1.34066 1.05619 1.26465 1.19891C0.673367 1.32691 0 1.56654 0 1.99186C0 2.25738 0 14.3196 0 14.3196C0 15.5052 1.11087 16.4667 2.48057 16.4667H12.4773V16.5784C12.4773 16.8114 12.6943 17 12.9626 17H15.0374C15.3057 17 15.5227 16.8114 15.5227 16.5784V16.4667H25.5194C26.8892 16.4667 28 15.5052 28 14.3196C28 14.3196 28 2.25738 28 1.99186C28 1.56654 27.3267 1.32691 26.7354 1.19896ZM13.2224 14.0281C13.1856 14.0192 13.1506 14.0096 13.113 14C12.4354 13.8417 11.6501 13.7189 10.7854 13.6324C9.91977 13.5473 8.97553 13.5 7.9852 13.5C6.66416 13.5 5.42598 13.5836 4.3476 13.7307C3.80926 13.8047 3.30941 13.895 2.85737 14C2.81974 14.0096 2.78474 14.0192 2.74799 14.0281V1.93638C2.90522 1.88905 3.07699 1.84393 3.26238 1.80029C3.84513 1.66419 4.56121 1.54954 5.36189 1.47039C6.16427 1.39049 7.05124 1.34689 7.9852 1.34689C9.23021 1.34689 10.394 1.42604 11.3793 1.56067C11.8723 1.62798 12.3201 1.71006 12.708 1.80034C12.8943 1.84398 13.066 1.88909 13.2224 1.93643V14.0281ZM25.2511 14.0281C25.2143 14.0192 25.1801 14.0096 25.1426 14C24.4641 13.8417 23.6788 13.7189 22.8141 13.6324C21.9493 13.5473 21.0051 13.5 20.0148 13.5C18.6937 13.5 17.4555 13.5836 16.3772 13.7307C15.8371 13.8047 15.339 13.895 14.886 14C14.8493 14.0096 14.8142 14.0192 14.7775 14.0281V1.93638C14.9339 1.88905 15.1057 1.84393 15.2919 1.80029C15.8739 1.66419 16.5891 1.54954 17.3906 1.47039C18.1929 1.39049 19.0807 1.34689 20.0147 1.34689C21.2588 1.34689 22.4226 1.42604 23.4088 1.56067C23.9018 1.62798 24.3487 1.71006 24.7375 1.80034C24.923 1.84398 25.0947 1.88909 25.2511 1.93643V14.0281Z" fill="#52796F"/>
</svg>
