<svg width="16" height="15" viewBox="0 0 16 15" fill="none" xmlns="http://www.w3.org/2000/svg">
<path d="M7.93651 5.55102H9.52381V3.46939H11.9048V2.08163H9.52381V0H7.93651V2.08163H5.55556V3.46939H7.93651V5.55102ZM4.7619 11.7959C3.88889 11.7959 3.18254 12.4204 3.18254 13.1837C3.18254 13.9469 3.88889 14.5714 4.7619 14.5714C5.63492 14.5714 6.34921 13.9469 6.34921 13.1837C6.34921 12.4204 5.63492 11.7959 4.7619 11.7959ZM12.6984 11.7959C11.8254 11.7959 11.119 12.4204 11.119 13.1837C11.119 13.9469 11.8254 14.5714 12.6984 14.5714C13.5714 14.5714 14.2857 13.9469 14.2857 13.1837C14.2857 12.4204 13.5714 11.7959 12.6984 11.7959ZM4.89683 9.54082L4.92063 9.45755L5.63492 8.32653H11.5476C12.1429 8.32653 12.6667 8.04204 12.9365 7.61184L16 2.74775L14.619 2.08163H14.6111L13.7381 3.46939L11.5476 6.93878H5.97619L5.87302 6.75143L4.09524 3.46939L3.34127 2.08163L2.59524 0.693878H0V2.08163H1.5873L4.44444 7.34816L3.37302 9.04816C3.24603 9.24245 3.1746 9.47143 3.1746 9.71429C3.1746 10.4776 3.88889 11.102 4.7619 11.102H14.2857V9.71429H5.09524C4.99206 9.71429 4.89683 9.63796 4.89683 9.54082Z" fill="#52796F"/>
</svg>
