<svg width="19" height="17" viewBox="0 0 19 17" fill="none" xmlns="http://www.w3.org/2000/svg">
<path fill-rule="evenodd" clip-rule="evenodd" d="M19.0001 8.90332C19.0001 11.9534 17.2533 14.6334 14.6176 16.165C14.3171 13.9836 12.3225 12.2981 9.90674 12.2981C7.34296 12.2981 5.25359 14.1964 5.15999 16.5712C2.09586 15.1412 0 12.2443 0 8.90332C0 4.14391 4.25332 0.285645 9.50005 0.285645C14.7468 0.285645 19.0001 4.14391 19.0001 8.90332ZM9.77103 11.2536C11.2701 11.2536 12.4853 9.96755 12.4853 8.38108C12.4853 6.79461 11.2701 5.50852 9.77103 5.50852C8.27196 5.50852 7.05673 6.79461 7.05673 8.38108C7.05673 9.96755 8.27196 11.2536 9.77103 11.2536Z" fill="#52796F"/>
</svg>
