<svg width="17" height="19" viewBox="0 0 17 19" fill="none" xmlns="http://www.w3.org/2000/svg">
<path d="M2.86774 15.9045C2.33595 15.9045 1.83902 15.7198 1.48159 15.377C1.02826 14.9463 0.810307 14.2958 0.888768 13.5926L1.21133 10.7447C1.27236 10.2085 1.59492 9.4965 1.96979 9.10973L9.12724 1.47126C10.9144 -0.436179 12.7801 -0.488919 14.6719 1.31304C16.5636 3.11499 16.616 4.99605 14.8288 6.90348L7.67134 14.542C7.30519 14.9375 6.62518 15.3067 6.09338 15.3947L3.2862 15.878C3.138 15.8868 3.00723 15.9045 2.86774 15.9045ZM11.9257 1.30425C11.2544 1.30425 10.6703 1.72617 10.0775 2.35905L2.92005 10.0064C2.74569 10.191 2.54518 10.6305 2.51031 10.8854L2.18774 13.7333C2.15287 14.0234 2.22261 14.2607 2.37954 14.4101C2.53646 14.5595 2.77185 14.6123 3.05954 14.5683L5.86672 14.085C6.11954 14.041 6.538 13.8124 6.71236 13.6278L13.8698 5.98932C14.9508 4.82904 15.3431 3.75666 13.7652 2.26236C13.0678 1.58553 12.4662 1.30425 11.9257 1.30425Z" fill="#52796F"/>
<path d="M13.1565 8.37122C13.139 8.37122 13.1129 8.37122 13.0954 8.37122C10.3754 8.09873 8.18723 6.01555 7.76877 3.29064C7.71647 2.93025 7.96057 2.59623 8.318 2.5347C8.67544 2.48196 9.00672 2.72808 9.06775 3.08847C9.39903 5.21565 11.1077 6.8506 13.2349 7.06156C13.5924 7.09672 13.8539 7.42195 13.819 7.78229C13.7754 8.11632 13.4877 8.37122 13.1565 8.37122Z" fill="#52796F"/>
<path d="M16.3462 18.7436H0.653846C0.29641 18.7436 0 18.4447 0 18.0843C0 17.7239 0.29641 17.425 0.653846 17.425H16.3462C16.7036 17.425 17 17.7239 17 18.0843C17 18.4447 16.7036 18.7436 16.3462 18.7436Z" fill="#52796F"/>
</svg>
