<svg width="17" height="14" viewBox="0 0 17 14" fill="none" xmlns="http://www.w3.org/2000/svg">
<path d="M2.86823 13.7753C2.33644 13.7753 1.83951 13.617 1.48208 13.3231C1.02874 12.9539 0.810795 12.3964 0.889257 11.7937L1.21182 9.35255C1.27285 8.89295 1.59541 8.28268 1.97028 7.95117L9.12772 1.4039C10.9149 -0.231045 12.7805 -0.276251 14.6723 1.26828C16.5641 2.81281 16.6164 4.42515 14.8293 6.0601L7.67183 12.6074C7.30567 12.9464 6.62567 13.2628 6.09387 13.3383L3.28669 13.7526C3.13849 13.7601 3.00772 13.7753 2.86823 13.7753ZM11.9262 1.26075C11.2549 1.26075 10.6708 1.62239 10.078 2.16486L2.92054 8.71974C2.74618 8.87796 2.54567 9.25468 2.51079 9.47317L2.18823 11.9142C2.15336 12.1628 2.2231 12.3663 2.38003 12.4943C2.53695 12.6224 2.77233 12.6676 3.06003 12.63L5.8672 12.2157C6.12002 12.178 6.53849 11.982 6.71285 11.8238L13.8703 5.27653C14.9513 4.282 15.3436 3.36282 13.7657 2.08199C13.0682 1.50184 12.4667 1.26075 11.9262 1.26075Z" fill="#52796F"/>
</svg>
