<svg width="51" height="51" viewBox="0 0 51 51" fill="none" xmlns="http://www.w3.org/2000/svg">
<path fill-rule="evenodd" clip-rule="evenodd" d="M50.5 26.9575C50.5 36.321 45.9039 44.5483 38.9691 49.2508C38.1777 42.5542 32.9292 37.3802 26.5723 37.3802C19.8252 37.3802 14.3267 43.2088 14.0808 50.5001C6.01632 46.1102 0.5 37.2156 0.5 26.9575C0.5 12.3454 11.6929 0.499878 25.5 0.499878C39.3071 0.499878 50.5 12.3454 50.5 26.9575ZM26.2132 34.1731C30.1581 34.1731 33.356 30.2247 33.356 25.3539C33.356 20.4832 30.1581 16.5347 26.2132 16.5347C22.2683 16.5347 19.0703 20.4832 19.0703 25.3539C19.0703 30.2247 22.2683 34.1731 26.2132 34.1731Z" fill="#84A98C"/>
</svg>
